<?xml version="1.0" encoding="UTF-8"?>
<!DOCTYPE svg PUBLIC "-//W3C//DTD SVG 1.1//EN" "http://www.w3.org/Graphics/SVG/1.1/DTD/svg11.dtd">
<svg version="1.1" xmlns="http://www.w3.org/2000/svg" xmlns:xlink="http://www.w3.org/1999/xlink" x="0" y="0" width="auto" height="100%" viewBox="0, 0, 1400, 900">
  <g id="Background">
    <rect x="0" y="0" width="auto" height="100%" fill="#000000" fill-opacity="0"/>
  </g>
  <defs>
    <linearGradient id="Gradient_1" gradientUnits="userSpaceOnUse" x1="700" y1="179" x2="700" y2="819.012">
      <stop offset="0" stop-color="#211615"/>
      <stop offset="0.492" stop-color="#791B6B"/>
      <stop offset="1" stop-color="#E4B8DD"/>
    </linearGradient>
    <linearGradient id="Gradient_2" gradientUnits="userSpaceOnUse" x1="1136.478" y1="847.571" x2="1136.478" y2="690.071">
      <stop offset="0" stop-color="#6E3364"/>
      <stop offset="1" stop-color="#211615"/>
    </linearGradient>
    <linearGradient id="Gradient_3" gradientUnits="userSpaceOnUse" x1="263.522" y1="847.571" x2="263.522" y2="690.071">
      <stop offset="0" stop-color="#6E3364"/>
      <stop offset="1" stop-color="#211615"/>
    </linearGradient>
    <linearGradient id="Gradient_4" gradientUnits="userSpaceOnUse" x1="700" y1="847.571" x2="700" y2="690.071">
      <stop offset="0" stop-color="#6E3364"/>
      <stop offset="1" stop-color="#211615"/>
    </linearGradient>
    <linearGradient id="Gradient_5" gradientUnits="userSpaceOnUse" x1="1246.737" y1="571" x2="1246.737" y2="893.304">
      <stop offset="0" stop-color="#6E3364"/>
      <stop offset="1" stop-color="#211615"/>
    </linearGradient>
    <linearGradient id="Gradient_6" gradientUnits="userSpaceOnUse" x1="1150.702" y1="881" x2="1150.702" y2="608.405">
      <stop offset="0" stop-color="#E5B9DD"/>
      <stop offset="0.481" stop-color="#6A2060" stop-opacity="0.55"/>
      <stop offset="1" stop-color="#211615" stop-opacity="0"/>
    </linearGradient>
    <linearGradient id="Gradient_7" gradientUnits="userSpaceOnUse" x1="845.373" y1="506" x2="845.373" y2="492.635">
      <stop offset="0" stop-color="#6E3364"/>
      <stop offset="1" stop-color="#211615"/>
    </linearGradient>
    <linearGradient id="Gradient_8" gradientUnits="userSpaceOnUse" x1="845.373" y1="458.25" x2="845.373" y2="467.753">
      <stop offset="0" stop-color="#6E3364"/>
      <stop offset="1" stop-color="#211615"/>
    </linearGradient>
    <linearGradient id="Gradient_9" gradientUnits="userSpaceOnUse" x1="845.373" y1="489" x2="845.373" y2="469.333">
      <stop offset="0" stop-color="#6E3364"/>
      <stop offset="1" stop-color="#211615"/>
    </linearGradient>
    <linearGradient id="Gradient_10" gradientUnits="userSpaceOnUse" x1="845.373" y1="620" x2="845.373" y2="943.099">
      <stop offset="0" stop-color="#6E3364"/>
      <stop offset="1" stop-color="#211615"/>
    </linearGradient>
    <linearGradient id="Gradient_11" gradientUnits="userSpaceOnUse" x1="825.25" y1="907" x2="825.25" y2="838.663">
      <stop offset="0" stop-color="#E5B9DD"/>
      <stop offset="0.481" stop-color="#6A2060" stop-opacity="0.55"/>
      <stop offset="1" stop-color="#211615" stop-opacity="0"/>
    </linearGradient>
    <linearGradient id="Gradient_12" gradientUnits="userSpaceOnUse" x1="947.489" y1="604.583" x2="947.49" y2="910.803">
      <stop offset="0" stop-color="#602E57"/>
      <stop offset="1" stop-color="#211615"/>
    </linearGradient>
    <linearGradient id="Gradient_13" gradientUnits="userSpaceOnUse" x1="982.877" y1="884" x2="982.877" y2="592.444">
      <stop offset="0" stop-color="#E5B9DD"/>
      <stop offset="0.481" stop-color="#6A2060" stop-opacity="0.55"/>
      <stop offset="1" stop-color="#211615" stop-opacity="0"/>
    </linearGradient>
    <linearGradient id="Gradient_14" gradientUnits="userSpaceOnUse" x1="1102.302" y1="474.089" x2="1102.302" y2="756.079">
      <stop offset="0" stop-color="#6E3364"/>
      <stop offset="1" stop-color="#211615"/>
    </linearGradient>
    <linearGradient id="Gradient_15" gradientUnits="userSpaceOnUse" x1="1059.5" y1="354.333" x2="1059.5" y2="308.29">
      <stop offset="0" stop-color="#6E3364"/>
      <stop offset="1" stop-color="#211615"/>
    </linearGradient>
    <linearGradient id="Gradient_16" gradientUnits="userSpaceOnUse" x1="1059.5" y1="230.25" x2="1059.5" y2="245.135">
      <stop offset="0" stop-color="#6E3364"/>
      <stop offset="1" stop-color="#211615"/>
    </linearGradient>
    <linearGradient id="Gradient_17" gradientUnits="userSpaceOnUse" x1="1059.5" y1="249" x2="1059.5" y2="265.75">
      <stop offset="0" stop-color="#6E3364"/>
      <stop offset="1" stop-color="#211615"/>
    </linearGradient>
    <linearGradient id="Gradient_18" gradientUnits="userSpaceOnUse" x1="418.052" y1="303.73" x2="418.052" y2="273.223">
      <stop offset="0" stop-color="#6E3364"/>
      <stop offset="1" stop-color="#211615"/>
    </linearGradient>
    <linearGradient id="Gradient_19" gradientUnits="userSpaceOnUse" x1="532.592" y1="255.601" x2="532.592" y2="309.047">
      <stop offset="0" stop-color="#6E3364"/>
      <stop offset="1" stop-color="#211615"/>
    </linearGradient>
    <linearGradient id="Gradient_20" gradientUnits="userSpaceOnUse" x1="564.378" y1="324.122" x2="564.378" y2="305.31">
      <stop offset="0" stop-color="#6E3364"/>
      <stop offset="1" stop-color="#211615"/>
    </linearGradient>
    <linearGradient id="Gradient_21" gradientUnits="userSpaceOnUse" x1="555.337" y1="780.071" x2="555.337" y2="410.619">
      <stop offset="0" stop-color="#6E3364"/>
      <stop offset="1" stop-color="#211615"/>
    </linearGradient>
    <linearGradient id="Gradient_22" gradientUnits="userSpaceOnUse" x1="585.992" y1="780.11" x2="585.992" y2="410.811">
      <stop offset="0" stop-color="#E5B9DD"/>
      <stop offset="0.481" stop-color="#6A2060" stop-opacity="0.5"/>
      <stop offset="1" stop-color="#211615" stop-opacity="0"/>
    </linearGradient>
    <linearGradient id="Gradient_23" gradientUnits="userSpaceOnUse" x1="557.206" y1="855.562" x2="557.206" y2="680.772">
      <stop offset="0" stop-color="#6E3364"/>
      <stop offset="1" stop-color="#211615"/>
    </linearGradient>
    <linearGradient id="Gradient_24" gradientUnits="userSpaceOnUse" x1="657.335" y1="897" x2="657.335" y2="761.276">
      <stop offset="0" stop-color="#E5B9DD"/>
      <stop offset="0.481" stop-color="#6A2060" stop-opacity="0.5"/>
      <stop offset="1" stop-color="#211615" stop-opacity="0"/>
    </linearGradient>
  </defs>
  <g id="Main">
    <g>
      <g>
        <path d="M0,0 L1400,0 L1400,900 L0,900 z" fill="#211615"/>
        <path d="M0,146.8 L1400,146.8 L1400,900 L0,900 z" fill="url(#Gradient_1)"/>
      </g>
      <g opacity="0.16">
        <path d="M1341,196.4 L1179.9,196.4 C1174.9,196.4 1170.9,192.4 1170.9,187.4 L1170.9,187.4 C1170.9,182.4 1166.9,178.4 1161.9,178.4 L1037.6,178.4 C1029.9,178.4 1023.6,184.7 1023.6,192.4 L1023.6,192.4 C1023.6,200.1 1029.9,206.4 1037.6,206.4 L1097.9,206.4 C1103.6,206.4 1108.2,211 1108.2,216.7 L1108.2,216.7 C1108.2,222.4 1103.6,227 1097.9,227 L1032.9,227 C1024.8,227 1018.2,233.6 1018.2,241.7 L1018.2,241.7 C1018.2,249.8 1011.6,256.4 1003.5,256.4 L878.5,256.4 C866.7,256.4 857.2,266 857.2,277.7 L857.2,277.7 C857.2,289.5 866.8,299 878.5,299 L1051.8,299 C1057.1,299 1061.5,294.7 1061.5,289.3 L1061.5,289.3 C1061.5,284 1065.8,279.6 1071.2,279.6 L1198.2,279.6 C1211.5,279.6 1222.2,268.9 1222.2,255.6 L1222.2,255.6 C1222.2,242.3 1232.9,231.6 1246.2,231.6 L1341,231.6 C1350.8,231.6 1358.7,223.7 1358.7,213.9 L1358.7,213.9 C1358.7,204.3 1350.8,196.4 1341,196.4 z" fill="#E0A4D5"/>
        <path d="M410.5,366.8 L286.3,366.8 C282.5,366.8 279.4,363.7 279.4,359.9 L279.4,359.9 C279.4,356.1 276.3,353 272.5,353 L176.6,353 C170.6,353 165.8,357.8 165.8,363.8 L165.8,363.8 C165.8,369.8 170.6,374.6 176.6,374.6 L223.1,374.6 C227.5,374.6 231.1,378.2 231.1,382.6 L231.1,382.6 C231.1,387 227.5,390.6 223.1,390.6 L173,390.6 C166.8,390.6 161.7,395.7 161.7,401.9 L161.7,401.9 C161.7,408.1 156.6,413.2 150.4,413.2 L54,413.2 C44.9,413.2 37.6,420.6 37.6,429.6 L37.6,429.6 C37.6,438.7 45,446 54,446 L187.6,446 C191.7,446 195.1,442.7 195.1,438.5 L195.1,438.5 C195.1,434.4 198.4,431 202.6,431 L300.5,431 C310.7,431 319,422.7 319,412.5 L319,412.5 C319,402.3 327.3,394 337.5,394 L410.6,394 C418.1,394 424.2,387.9 424.2,380.4 L424.2,380.4 C424.1,372.9 418,366.8 410.5,366.8 z" fill="#E0A4D5"/>
        <path d="M855.2,172.1 L710.6,172.1 C703.4,172.1 697.6,177.9 697.6,185.1 L697.6,185.1 C697.6,192.3 703.4,198.1 710.6,198.1 L855.3,198.1 C862.5,198.1 868.3,192.3 868.3,185.1 L868.3,185.1 C868.2,177.9 862.4,172.1 855.2,172.1 z" fill="#E0A4D5"/>
        <path d="M231.9,268.3 L87.3,268.3 C80.1,268.3 74.3,274.1 74.3,281.3 L74.3,281.3 C74.3,288.5 80.1,294.3 87.3,294.3 L232,294.3 C239.2,294.3 245,288.5 245,281.3 L245,281.3 C244.9,274.1 239.1,268.3 231.9,268.3 z" fill="#E0A4D5"/>
        <path d="M720.6,490 L641.8,490 C631.8,490 623.6,481.9 623.6,471.8 L623.6,471.8 C623.6,461.8 631.7,453.6 641.8,453.6 L749,453.6 C759.3,453.6 767.7,445.2 767.7,434.9 L767.7,434.9 C767.7,424.6 759.3,416.2 749,416.2 L505.8,416.2 C495.5,416.2 487.1,424.6 487.1,434.9 L487.1,434.9 C487.1,445.2 495.5,453.6 505.8,453.6 L520.2,453.6 C533.1,453.6 543.6,464.1 543.6,477 L543.6,477 C543.6,489.9 554.1,500.4 567,500.4 L569.9,500.4 C577.4,500.4 583.6,506.5 583.6,514.1 L583.6,514.1 C583.6,521.6 577.5,527.8 569.9,527.8 L486.1,527.8 C476.7,527.8 469.1,535.4 469.1,544.8 L469.1,544.8 C469.1,554.2 476.7,561.8 486.1,561.8 L631,561.8 C638.4,561.8 644.4,555.8 644.4,548.4 L644.4,548.4 C644.4,541 650.4,535 657.8,535 L720.6,535 C733,535 743.1,524.9 743.1,512.5 L743.1,512.5 C743.1,500.1 733,490 720.6,490 z" fill="#E0A4D5"/>
        <path d="M274.3,655.2 L195.5,655.2 C185.5,655.2 177.3,647.1 177.3,637 L177.3,637 C177.3,627 185.4,618.8 195.5,618.8 L302.8,618.8 C313.1,618.8 321.5,610.4 321.5,600.1 L321.5,600.1 C321.5,589.8 313.1,581.4 302.8,581.4 L59.5,581.4 C49.2,581.4 40.8,589.8 40.8,600.1 L40.8,600.1 C40.8,610.4 49.2,618.8 59.5,618.8 L73.9,618.8 C86.8,618.8 97.3,629.3 97.3,642.2 L97.3,642.2 C97.3,655.1 107.8,665.6 120.7,665.6 L123.6,665.6 C131.1,665.6 137.3,671.7 137.3,679.3 L137.3,679.3 C137.3,686.8 131.2,693 123.6,693 L39.8,693 C30.4,693 22.8,700.6 22.8,710 L22.8,710 C22.8,719.4 30.4,727 39.8,727 L184.7,727 C192.1,727 198.1,721 198.1,713.6 L198.1,713.6 C198.1,706.2 204.1,700.2 211.5,700.2 L274.3,700.2 C286.7,700.2 296.8,690.1 296.8,677.7 L296.8,677.7 C296.8,665.3 286.7,655.2 274.3,655.2 z" fill="#E0A4D5"/>
        <path d="M1276.4,420.8 L1127.9,420.8 C1119.5,420.8 1112.7,427.6 1112.7,436 L1112.7,436 C1112.7,444.4 1105.9,451.2 1097.5,451.2 L1073.8,451.2 C1065.4,451.2 1058.7,458 1058.7,466.3 L1058.7,466.3 C1058.7,474.7 1065.5,481.4 1073.8,481.4 L1174.5,481.4 C1180.9,481.4 1186.1,476.2 1186.1,469.8 L1186.1,469.8 C1186.1,463.4 1191.3,458.2 1197.7,458.2 L1276.2,458.2 C1286.5,458.2 1294.9,449.8 1294.9,439.5 L1294.9,439.5 C1295,429.2 1286.7,420.8 1276.4,420.8 z" fill="#E0A4D5"/>
        <path d="M249.5,127.7 L398,127.7 C406.4,127.7 413.2,134.5 413.2,142.9 L413.2,142.9 C413.2,151.3 420,158.1 428.4,158.1 L452.1,158.1 C460.5,158.1 467.2,164.9 467.2,173.2 L467.2,173.2 C467.2,181.6 460.4,188.3 452.1,188.3 L351.4,188.3 C345,188.3 339.8,183.1 339.8,176.7 L339.8,176.7 C339.8,170.3 334.6,165.1 328.2,165.1 L249.7,165.1 C239.4,165.1 231,156.7 231,146.4 L231,146.4 C230.9,136 239.2,127.7 249.5,127.7 z" fill="#E0A4D5"/>
        <path d="M1052.7,519 L1052.7,519 C1052.7,511.8 1046.9,506.1 1039.8,506.1 L884.6,506.1 C873.1,506.1 863.8,515.4 863.8,526.9 L863.8,526.9 C863.8,538.4 873.1,547.7 884.6,547.7 L981.4,547.7 C985.7,547.7 989.3,551.2 989.3,555.6 L989.3,555.6 C989.3,559.9 992.8,563.5 997.2,563.5 L1089.6,563.5 C1098.3,563.5 1105.4,556.4 1105.4,547.7 L1105.4,547.7 C1105.4,539 1098.3,531.9 1089.6,531.9 L1065.8,531.9 C1058.5,531.9 1052.7,526.1 1052.7,519 z" fill="#E0A4D5"/>
      </g>
      <path d="M474.9,852.5 L474.9,630.4 C474.9,611 466.1,592.6 450.9,580.6 L450.9,580.6 C436.3,569 427.8,551.4 427.8,532.8 L427.8,480 L422.5,480 L422.5,900 L474.9,900 L474.9,852.5 z" fill="#72286B" opacity="0.66"/>
      <path d="M363.9,590.9 L363.9,590.9 C356.2,584.8 351.8,575.5 351.8,565.8 L351.8,538 L349,538 L346.2,538 L346.2,565.7 C346.2,575.5 341.7,584.7 334.1,590.8 L334.1,590.8 C326.1,597.2 321.5,606.8 321.5,617 L321.5,872.7 L321.5,900 L349,900 L376.5,900 L376.5,872.8 L376.5,617.1 C376.5,606.9 371.9,597.2 363.9,590.9 z" fill="#72286B" opacity="0.66"/>
      <path d="M204.8,606.2 L204.8,606.2 C192.6,596.5 185.4,581.7 185.4,566 L185.4,521.7 L181,521.7 L176.6,521.7 L176.6,566 C176.6,581.6 169.5,596.4 157.2,606.2 L157.2,606.2 C144.4,616.4 137,631.8 137,648.1 L137,856.6 L137,900 L181,900 L225,900 L225,856.5 L225,648.1 C225,631.8 217.6,616.3 204.8,606.2 z" fill="#72286B" opacity="0.66"/>
      <path d="M796,603.8 L792.8,603.8 C790.4,599.5 785.9,596.6 780.6,596.6 L769.2,596.6 L769.2,506.7 C769.2,505.7 768.4,505 767.5,505 L767.5,505 C766.5,505 765.8,505.8 765.8,506.7 L765.8,596.6 L754.4,596.6 C749.2,596.6 744.6,599.5 742.2,603.8 L739.4,603.8 C732,603.8 725.7,609.5 725.5,616.9 C725.2,624.6 731.4,631 739.1,631 L745.1,631 C752,631 757.5,636.6 757.5,643.4 L757.5,900 L777.5,900 L777.5,643.5 C777.5,636.6 783.1,631.1 789.9,631.1 L795.6,631.1 C803,631.1 809.3,625.4 809.5,618 C809.8,610.2 803.6,603.8 796,603.8 z" fill="#72286B" opacity="0.66"/>
      <g>
        <path d="M0,669 L1400,669 L1400,700.5 L0,700.5 z" fill="#6E3364"/>
        <g>
          <path d="M1145.7,751 C1146.6,722.7 1170.4,700.5 1198.7,700.5 L1074.2,700.5 C1102.5,700.5 1126.3,722.7 1127.2,751 C1127.2,751.7 1127.2,752.5 1127.2,753.2 L1127.2,900 L1136.4,900 L1145.6,900 L1145.6,753.3 C1145.6,752.5 1145.7,751.8 1145.7,751 z" fill="url(#Gradient_2)"/>
          <path d="M272.7,751 C273.6,722.7 297.4,700.5 325.7,700.5 L201.3,700.5 C229.6,700.5 253.4,722.7 254.3,751 C254.3,751.7 254.3,752.5 254.3,753.2 L254.3,900 L263.5,900 L272.7,900 L272.7,753.3 C272.7,752.5 272.7,751.8 272.7,751 z" fill="url(#Gradient_3)"/>
          <path d="M709.2,751 C710.1,722.7 733.9,700.5 762.2,700.5 L637.8,700.5 C666.1,700.5 689.9,722.7 690.8,751 C690.8,751.7 690.8,752.5 690.8,753.2 L690.8,900 L700,900 L709.2,900 L709.2,753.3 C709.2,752.5 709.2,751.8 709.2,751 z" fill="url(#Gradient_4)"/>
        </g>
      </g>
      <g>
        <path d="M1354.4,900 L1354.4,618.6 C1354.4,566 1311.8,523.4 1259.2,523.4 L1259.2,523.4 L1259.2,523.4 C1259.2,490.9 1244.6,460.1 1219.3,439.6 L1144.3,378.5 L1139.1,378.5 L1139.1,900 L1354.4,900 z" fill="#C89AC3"/>
        <path d="M1139.1,523.4 C1139.1,523.4 1354.4,540 1354.4,900 L1139.1,900 L1139.1,523.4 z" fill="url(#Gradient_5)"/>
        <g>
          <g>
            <path d="M1302.8,880.8 L1275.3,880.8 C1274.1,880.8 1273.1,881.8 1273.1,883 C1273.1,884.2 1274.1,885.2 1275.3,885.2 L1302.8,885.2 C1304,885.2 1305,884.2 1305,883 C1305,881.8 1304,880.8 1302.8,880.8 z" fill="#E5B9DD"/>
            <path d="M1261.1,880.8 L1174.7,880.8 C1173.5,880.8 1172.5,881.8 1172.5,883 C1172.5,884.2 1173.5,885.2 1174.7,885.2 L1261.1,885.2 C1262.3,885.2 1263.3,884.2 1263.3,883 C1263.3,881.8 1262.3,880.8 1261.1,880.8 z" fill="#E5B9DD"/>
          </g>
          <g>
            <path d="M1174.7,673.4 L1202.2,673.4 C1203.4,673.4 1204.4,672.4 1204.4,671.2 C1204.4,670 1203.4,669 1202.2,669 L1174.7,669 C1173.5,669 1172.5,670 1172.5,671.2 C1172.5,672.4 1173.5,673.4 1174.7,673.4 z" fill="#E5B9DD"/>
            <path d="M1216.4,673.4 L1302.8,673.4 C1304,673.4 1305,672.4 1305,671.2 C1305,670 1304,669 1302.8,669 L1216.4,669 C1215.2,669 1214.2,670 1214.2,671.2 C1214.2,672.4 1215.2,673.4 1216.4,673.4 z" fill="#E5B9DD"/>
          </g>
          <g>
            <path d="M1302.8,802.6 L1275.3,802.6 C1274.1,802.6 1273.1,803.6 1273.1,804.8 C1273.1,806 1274.1,807 1275.3,807 L1302.8,807 C1304,807 1305,806 1305,804.8 C1305,803.6 1304,802.6 1302.8,802.6 z" fill="#E5B9DD"/>
            <path d="M1264.2,802.6 L1254.2,802.6 C1253,802.6 1252,803.6 1252,804.8 C1252,806 1253,807 1254.2,807 L1264.2,807 C1265.4,807 1266.4,806 1266.4,804.8 C1266.4,803.6 1265.4,802.6 1264.2,802.6 z" fill="#E5B9DD"/>
            <path d="M1242.8,802.6 L1174.7,802.6 C1173.5,802.6 1172.5,803.6 1172.5,804.8 C1172.5,806 1173.5,807 1174.7,807 L1242.8,807 C1244,807 1245,806 1245,804.8 C1245,803.6 1244,802.6 1242.8,802.6 z" fill="#E5B9DD"/>
          </g>
          <g>
            <path d="M1174.7,779.9 L1202.2,779.9 C1203.4,779.9 1204.4,778.9 1204.4,777.7 C1204.4,776.5 1203.4,775.5 1202.2,775.5 L1174.7,775.5 C1173.5,775.5 1172.5,776.5 1172.5,777.7 C1172.5,779 1173.5,779.9 1174.7,779.9 z" fill="#E5B9DD"/>
            <path d="M1213.3,779.9 L1223.3,779.9 C1224.5,779.9 1225.5,778.9 1225.5,777.7 C1225.5,776.5 1224.5,775.5 1223.3,775.5 L1213.3,775.5 C1212.1,775.5 1211.1,776.5 1211.1,777.7 C1211.1,779 1212.1,779.9 1213.3,779.9 z" fill="#E5B9DD"/>
            <path d="M1234.7,779.9 L1302.8,779.9 C1304,779.9 1305,778.9 1305,777.7 C1305,776.5 1304,775.5 1302.8,775.5 L1234.7,775.5 C1233.5,775.5 1232.5,776.5 1232.5,777.7 C1232.5,779 1233.4,779.9 1234.7,779.9 z" fill="#E5B9DD"/>
          </g>
        </g>
        <g>
          <g>
            <path d="M1145.3,465.1 L1152.7,465.1 C1153.6,465.1 1154.3,464.4 1154.3,463.5 C1154.3,462.6 1153.6,461.9 1152.7,461.9 L1145.3,461.9 C1144.4,461.9 1143.7,462.6 1143.7,463.5 C1143.7,464.4 1144.4,465.1 1145.3,465.1 z" fill="#FFFFFF"/>
            <path d="M1203.9,465.1 L1222.3,465.1 C1223.2,465.1 1223.9,464.4 1223.9,463.5 C1223.9,462.6 1223.2,461.9 1222.3,461.9 L1203.9,461.9 C1203,461.9 1202.3,462.6 1202.3,463.5 C1202.3,464.4 1203.1,465.1 1203.9,465.1 z" fill="#FFFFFF"/>
            <path d="M1159.6,465.1 L1195.9,465.1 C1196.8,465.1 1197.5,464.4 1197.5,463.5 C1197.5,462.6 1196.8,461.9 1195.9,461.9 L1159.6,461.9 C1158.7,461.9 1158,462.6 1158,463.5 C1158,464.4 1158.7,465.1 1159.6,465.1 z" fill="#FFFFFF"/>
          </g>
          <path d="M1145.3,451.6 L1181.6,451.6 C1182.5,451.6 1183.2,450.9 1183.2,450 C1183.2,449.1 1182.5,448.4 1181.6,448.4 L1145.3,448.4 C1144.4,448.4 1143.7,449.1 1143.7,450 C1143.7,450.9 1144.4,451.6 1145.3,451.6 z" fill="#FFFFFF"/>
        </g>
        <g>
          <g>
            <path d="M1170.7,505 L1178.1,505 C1179,505 1179.7,505.7 1179.7,506.6 C1179.7,507.5 1179,508.2 1178.1,508.2 L1170.7,508.2 C1169.8,508.2 1169.1,507.5 1169.1,506.6 C1169.1,505.7 1169.8,505 1170.7,505 z" fill="#FFFFFF"/>
            <path d="M1229.3,505 L1247.7,505 C1248.6,505 1249.3,505.7 1249.3,506.6 C1249.3,507.5 1248.6,508.2 1247.7,508.2 L1229.3,508.2 C1228.4,508.2 1227.7,507.5 1227.7,506.6 C1227.7,505.7 1228.4,505 1229.3,505 z" fill="#FFFFFF"/>
            <path d="M1184.9,505 L1221.2,505 C1222.1,505 1222.8,505.7 1222.8,506.6 C1222.8,507.5 1222.1,508.2 1221.2,508.2 L1184.9,508.2 C1184,508.2 1183.3,507.5 1183.3,506.6 C1183.3,505.7 1184,505 1184.9,505 z" fill="#FFFFFF"/>
          </g>
          <path d="M1209.5,518.5 L1245.8,518.5 C1246.7,518.5 1247.4,519.2 1247.4,520.1 C1247.4,521 1246.7,521.7 1245.8,521.7 L1209.5,521.7 C1208.6,521.7 1207.9,521 1207.9,520.1 C1207.9,519.2 1208.6,518.5 1209.5,518.5 z" fill="#FFFFFF"/>
        </g>
        <path d="M1141.7,234.5 C1140.3,234.5 1139.1,235.7 1139.1,237.1 L1139.1,378.5 L1144.3,378.5 L1144.3,237.1 C1144.3,235.7 1143.1,234.5 1141.7,234.5 z" fill="#C89AC3"/>
        <path d="M1139.1,551 L1162.4,551 L1162.4,900 L1139.1,900 z" fill="url(#Gradient_6)"/>
      </g>
      <g>
        <path d="M845.4,330.7 C844.3,330.7 843.4,331.6 843.4,332.7 L843.4,448.7 L847.3,448.7 L847.3,332.7 C847.3,331.5 846.5,330.7 845.4,330.7 z" fill="#E5B9DD"/>
        <path d="M779.4,494 C779.4,500.4 784.6,505.7 791.1,505.7 L899.7,505.7 C906.1,505.7 911.4,500.5 911.4,494 L779.4,494 z" fill="url(#Gradient_7)"/>
        <path d="M804.9,505.7 C804.9,515.5 812.8,523.4 822.6,523.4 L868.1,523.4 C877.9,523.4 885.8,515.5 885.8,505.7 L804.9,505.7 z" fill="#211615"/>
        <path d="M911.3,466 C911.3,459.6 906.1,454.3 899.6,454.3 L791.1,454.3 C784.7,454.3 779.4,459.5 779.4,466 L911.3,466 z" fill="url(#Gradient_8)"/>
        <path d="M885.8,454.3 C885.8,444.5 877.9,436.6 868.1,436.6 L822.6,436.6 C812.8,436.6 804.9,444.5 804.9,454.3 L885.8,454.3 z" fill="#E5B9DD"/>
        <path d="M931,466 L759.7,466 C752,466 745.7,472.3 745.7,480 C745.7,487.7 752,494 759.7,494 L931,494 C938.7,494 945,487.7 945,480 C945,472.3 938.7,466 931,466 z" fill="#E5B9DD"/>
        <path d="M759.7,494 L931,494 C938.7,494 945,487.7 945,480 L745.7,480 C745.7,487.7 752,494 759.7,494 z" fill="url(#Gradient_9)"/>
        <g>
          <path d="M758.3,481.5 L776.7,481.5 C777.5,481.5 778.2,480.8 778.2,480 C778.2,479.2 777.5,478.5 776.7,478.5 L758.3,478.5 C757.5,478.5 756.8,479.2 756.8,480 C756.8,480.8 757.5,481.5 758.3,481.5 z" fill="#FFFFFF"/>
          <path d="M848.8,481.5 L853.1,481.5 C853.9,481.5 854.6,480.8 854.6,480 C854.6,479.2 853.9,478.5 853.1,478.5 L848.8,478.5 C848,478.5 847.3,479.2 847.3,480 C847.3,480.8 848,481.5 848.8,481.5 z" fill="#FFFFFF"/>
          <path d="M784.4,481.5 L837,481.5 C837.8,481.5 838.5,480.8 838.5,480 C838.5,479.2 837.8,478.5 837,478.5 L784.4,478.5 C783.6,478.5 782.9,479.2 782.9,480 C782.9,480.8 783.5,481.5 784.4,481.5 z" fill="#FFFFFF"/>
        </g>
        <path d="M873.3,816 L873.3,816 C864.9,816 858.2,809.2 858.2,800.9 L858.2,523.4 L832.7,523.4 L832.7,800.9 C832.7,809.3 825.9,816 817.6,816 L817.6,816 C810.3,816 804.3,821.9 804.3,829.3 L804.3,900 L832.7,900 L858.2,900 L886.6,900 L886.6,829.2 C886.5,821.9 880.6,816 873.3,816 z" fill="url(#Gradient_10)"/>
        <path d="M814,827.5 L836.5,827.5 L836.5,900 L814,900 z" fill="url(#Gradient_11)"/>
        <g>
          <path d="M826.7,830.4 L845.1,830.4 C845.9,830.4 846.6,829.7 846.6,828.9 C846.6,828.1 845.9,827.4 845.1,827.4 L826.7,827.4 C825.9,827.4 825.2,828.1 825.2,828.9 C825.2,829.7 825.9,830.4 826.7,830.4 z" fill="#FFFFFF"/>
          <path d="M878,830.4 L882.3,830.4 C883.1,830.4 883.8,829.7 883.8,828.9 C883.8,828.1 883.1,827.4 882.3,827.4 L878,827.4 C877.2,827.4 876.5,828.1 876.5,828.9 C876.5,829.7 877.2,830.4 878,830.4 z" fill="#FFFFFF"/>
          <path d="M852.8,830.4 L872.1,830.4 C872.9,830.4 873.6,829.7 873.6,828.9 C873.6,828.1 872.9,827.4 872.1,827.4 L852.8,827.4 C852,827.4 851.3,828.1 851.3,828.9 C851.3,829.8 852,830.4 852.8,830.4 z" fill="#FFFFFF"/>
        </g>
      </g>
      <g>
        <path d="M991.9,445.5 C934.4,519.1 903.2,609.8 903.2,703.1 L903.2,900 L991.9,900 L991.9,445.5 L991.9,445.5 z" fill="url(#Gradient_12)"/>
        <path d="M964,691.4 L910.6,691.4 C909.4,691.4 908.4,692.4 908.4,693.6 C908.4,694.8 909.4,695.8 910.6,695.8 L964,695.8 C965.2,695.8 966.2,694.8 966.2,693.6 C966.2,692.4 965.2,691.4 964,691.4 z" fill="#E5B9DD"/>
        <path d="M964,709.5 L944.2,709.5 C943,709.5 942,710.5 942,711.7 C942,712.9 943,713.9 944.2,713.9 L964,713.9 C965.2,713.9 966.2,712.9 966.2,711.7 C966.2,710.5 965.2,709.5 964,709.5 z" fill="#E5B9DD"/>
        <path d="M973.9,555 L991.9,555 L991.9,900 L973.9,900 z" fill="url(#Gradient_13)"/>
      </g>
      <g>
        <path d="M1096.2,372.1 L1059.5,372.1 L1022.8,372.1 C1098.7,540 973.9,900 973.9,900 L1059.5,900 L1145.1,900 C1145.1,900 1020.3,540 1096.2,372.1 z" fill="#C89AC3"/>
        <path d="M1145.1,900 C1145.1,900 1020.3,540 1096.2,372.1 L1059.5,372.1 L1059.5,900 L1145.1,900 z" fill="url(#Gradient_14)"/>
        <path d="M1059.5,127.7 C1058,127.7 1056.7,129 1056.7,130.5 L1056.7,297.7 C1056.7,299.2 1058,300.5 1059.5,300.5 C1061,300.5 1062.3,299.2 1062.3,297.7 L1062.3,130.5 C1062.3,128.9 1061,127.7 1059.5,127.7 z" fill="#C89AC3"/>
        <path d="M1149,268.1 L970,268.1 C944.7,268.1 924.2,288.6 924.2,313.9 L924.2,313.9 C924.2,339.2 944.7,359.7 970,359.7 L1149,359.7 C1174.3,359.7 1194.8,339.2 1194.8,313.9 L1194.8,313.9 C1194.8,288.6 1174.3,268.1 1149,268.1 z" fill="#C89AC3"/>
        <path d="M1006.8,359.8 C1006.8,366.6 1012.3,372.1 1019.1,372.1 L1099.9,372.1 C1106.7,372.1 1112.2,366.6 1112.2,359.8 L1006.8,359.8 z" fill="#211615"/>
        <path d="M970,359.8 L1149,359.8 C1174.3,359.8 1194.8,339.3 1194.8,314 L924.2,314 C924.2,339.2 944.7,359.8 970,359.8 z" fill="url(#Gradient_15)"/>
        <path d="M1079.6,219.3 L1039.5,219.3 C1033.8,219.3 1029.2,223.9 1029.2,229.6 L1089.9,229.6 C1089.9,223.9 1085.2,219.3 1079.6,219.3 z" fill="#C89AC3"/>
        <g>
          <path d="M1044.5,879.1 L989.6,879.1 C988.5,879.1 987.7,880 987.7,881 C987.7,882.1 988.6,882.9 989.6,882.9 L1044.5,882.9 C1045.6,882.9 1046.4,882 1046.4,881 C1046.4,880 1045.6,879.1 1044.5,879.1 z" fill="#FFFFFF"/>
          <path d="M1052.9,879.1 L1051.4,879.1 C1050.3,879.1 1049.5,880 1049.5,881 C1049.5,882.1 1050.4,882.9 1051.4,882.9 L1052.9,882.9 C1054,882.9 1054.8,882 1054.8,881 C1054.8,880 1054,879.1 1052.9,879.1 z" fill="#FFFFFF"/>
          <path d="M1128.2,879.1 L1104.2,879.1 C1103.1,879.1 1102.3,880 1102.3,881 C1102.3,882.1 1103.2,882.9 1104.2,882.9 L1128.2,882.9 C1129.3,882.9 1130.1,882 1130.1,881 C1130.1,880 1129.3,879.1 1128.2,879.1 z" fill="#E5B9DD"/>
        </g>
        <path d="M1100.1,859.4 L1072.6,859.4 C1071.4,859.4 1070.4,860.4 1070.4,861.6 C1070.4,862.8 1071.4,863.8 1072.6,863.8 L1100.1,863.8 C1101.3,863.8 1102.3,862.8 1102.3,861.6 C1102.3,860.4 1101.3,859.4 1100.1,859.4 z" fill="#E5B9DD"/>
        <g>
          <path d="M1183.6,311.7 L1156.1,311.7 C1154.9,311.7 1153.9,312.7 1153.9,313.9 C1153.9,315.1 1154.9,316.1 1156.1,316.1 L1183.6,316.1 C1184.8,316.1 1185.8,315.1 1185.8,313.9 C1185.8,312.7 1184.8,311.7 1183.6,311.7 z" fill="#FFFFFF"/>
          <path d="M1141.9,311.7 L1055.5,311.7 C1054.3,311.7 1053.3,312.7 1053.3,313.9 C1053.3,315.1 1054.3,316.1 1055.5,316.1 L1141.9,316.1 C1143.1,316.1 1144.1,315.1 1144.1,313.9 C1144.1,312.7 1143.1,311.7 1141.9,311.7 z" fill="#FFFFFF"/>
        </g>
        <g>
          <path d="M957.3,281.6 L963.1,281.6 C964.3,281.6 965.3,280.6 965.3,279.4 C965.3,278.2 964.3,277.2 963.1,277.2 L957.3,277.2 C956.1,277.2 955.1,278.2 955.1,279.4 C955.1,280.6 956.1,281.6 957.3,281.6 z" fill="#FFFFFF"/>
          <path d="M973.6,281.6 L1060,281.6 C1061.2,281.6 1062.2,280.6 1062.2,279.4 C1062.2,278.2 1061.2,277.2 1060,277.2 L973.6,277.2 C972.4,277.2 971.4,278.2 971.4,279.4 C971.4,280.6 972.4,281.6 973.6,281.6 z" fill="#FFFFFF"/>
          <path d="M1075,281.6 L1110,281.6 C1111.2,281.6 1112.2,280.6 1112.2,279.4 C1112.2,278.2 1111.2,277.2 1110,277.2 L1075,277.2 C1073.8,277.2 1072.8,278.2 1072.8,279.4 C1072.8,280.6 1073.8,281.6 1075,281.6 z" fill="#FFFFFF"/>
        </g>
        <path d="M1029.1,229.6 L1089.8,229.6 L1089.8,247.5 L1029.1,247.5 z" fill="url(#Gradient_16)"/>
        <path d="M1104.2,245.2 L1014.7,245.2 C1002,245.2 991.8,255.5 991.8,268.1 L1127.1,268.1 C1127.1,255.4 1116.9,245.2 1104.2,245.2 z" fill="url(#Gradient_17)"/>
        <g>
          <path d="M1108.9,249.7 L1091.2,249.7 C1090.4,249.7 1089.8,250.3 1089.8,251.1 C1089.8,251.9 1090.4,252.5 1091.2,252.5 L1108.9,252.5 C1109.7,252.5 1110.3,251.9 1110.3,251.1 C1110.3,250.3 1109.7,249.7 1108.9,249.7 z" fill="#E5B9DD"/>
          <path d="M1082.1,249.7 L1026.4,249.7 C1025.6,249.7 1025,250.3 1025,251.1 C1025,251.9 1025.6,252.5 1026.4,252.5 L1082.1,252.5 C1082.9,252.5 1083.5,251.9 1083.5,251.1 C1083.5,250.3 1082.9,249.7 1082.1,249.7 z" fill="#E5B9DD"/>
        </g>
      </g>
      <g>
        <path d="M563.3,301.2 L554.4,300.9 L545.6,301.2 L479.6,727.6 L554.4,727.6 L629.2,727.6 z" fill="#E0A4D5"/>
        <g>
          <path d="M433.9,305.4 C422.5,304.1 401.1,295.4 401.1,272.1 L410.1,272.1 C410.1,293.2 434,296.4 435,296.5 L433.9,305.4 z" fill="url(#Gradient_18)"/>
          <path d="M684.1,289.9 C684.1,296.693 671.654,302.2 656.3,302.2 C640.946,302.2 628.5,296.693 628.5,289.9 C628.5,283.107 640.946,277.6 656.3,277.6 C671.654,277.6 684.1,283.107 684.1,289.9 z" fill="#FFFFFF"/>
          <path d="M685.2,320.2 C685.2,330.859 631.116,339.5 564.4,339.5 C497.684,339.5 443.6,330.859 443.6,320.2 C443.6,309.541 497.684,300.9 564.4,300.9 C631.116,300.9 685.2,309.541 685.2,320.2 z" fill="#211615"/>
          <path d="M544.4,225.3 L468.3,225.3 C465.1,225.3 462.4,227.9 462.4,231.2 L462.4,231.2 C462.4,234.4 465,237.1 468.3,237.1 L544.4,237.1 C547.6,237.1 550.3,234.5 550.3,231.2 L550.3,231.2 C550.3,227.9 547.7,225.3 544.4,225.3 z" fill="#E5B9DD"/>
          <path d="M420.2,260.9 L356.1,260.9 C352.2,260.9 349,264.1 349,268 L349,268 C349,271.9 352.2,275.1 356.1,275.1 L420.2,275.1 C424.1,275.1 427.3,271.9 427.3,268 L427.3,268 C427.3,264.1 424.2,260.9 420.2,260.9 z" fill="#E5B9DD"/>
          <path d="M477,220.6 C475.2,220.6 473.7,222.1 473.7,223.9 L473.7,245.4 L480.2,245.4 L480.2,223.9 C480.3,222 478.8,220.6 477,220.6 z" fill="#FFFFFF"/>
          <path d="M505.1,220.6 C503.3,220.6 501.8,222.1 501.8,223.9 L501.8,245.4 L508.3,245.4 L508.3,223.9 C508.4,222 506.9,220.6 505.1,220.6 z" fill="#FFFFFF"/>
          <path d="M533.2,220.6 C531.4,220.6 529.9,222.1 529.9,223.9 L529.9,245.4 L536.4,245.4 L536.4,223.9 C536.4,222 535,220.6 533.2,220.6 z" fill="#FFFFFF"/>
          <path d="M453.3,294 L453.3,257 C453.3,249.3 459.6,243 467.3,243 L545.5,243 C552.6,243 559.5,245.8 564.5,250.9 L611.9,298.3 L453.3,294 z" fill="url(#Gradient_19)"/>
          <path d="M692.8,288.1 L436,288.1 C425,288.1 416.2,297 416.2,307.9 L416.2,307.9 C416.2,318.9 425.1,327.7 436,327.7 L692.8,327.7 C703.8,327.7 712.6,318.8 712.6,307.9 L712.6,307.9 C712.6,296.9 703.7,288.1 692.8,288.1 z" fill="#E5B9DD"/>
          <path d="M436,327.7 L692.8,327.7 C703.8,327.7 712.6,318.8 712.6,307.9 L416.1,307.9 C416.1,318.9 425,327.7 436,327.7 z" fill="url(#Gradient_20)"/>
          <g>
            <path d="M590.3,309.4 L608.7,309.4 C609.5,309.4 610.2,308.7 610.2,307.9 C610.2,307.1 609.5,306.4 608.7,306.4 L590.3,306.4 C589.5,306.4 588.8,307.1 588.8,307.9 C588.9,308.7 589.5,309.4 590.3,309.4 z" fill="#FFFFFF"/>
            <path d="M680.8,309.4 L685.1,309.4 C685.9,309.4 686.6,308.7 686.6,307.9 C686.6,307.1 685.9,306.4 685.1,306.4 L680.8,306.4 C680,306.4 679.3,307.1 679.3,307.9 C679.4,308.7 680,309.4 680.8,309.4 z" fill="#FFFFFF"/>
            <path d="M616.4,309.4 L669,309.4 C669.8,309.4 670.5,308.7 670.5,307.9 C670.5,307.1 669.8,306.4 669,306.4 L616.4,306.4 C615.6,306.4 614.9,307.1 614.9,307.9 C614.9,308.7 615.6,309.4 616.4,309.4 z" fill="#FFFFFF"/>
          </g>
          <path d="M577.1,273.5 L532.8,273.5 C531.3,273.5 530.1,274.7 530.1,276.2 C530.1,277.7 531.3,278.9 532.8,278.9 L577.1,278.9 C578.6,278.9 579.8,277.7 579.8,276.2 C579.8,274.7 578.6,273.5 577.1,273.5 z" fill="#FFFFFF"/>
          <path d="M523.4,273.5 L511.6,273.5 C510.1,273.5 508.9,274.7 508.9,276.2 C508.9,277.7 510.1,278.9 511.6,278.9 L523.4,278.9 C524.9,278.9 526.1,277.7 526.1,276.2 C526.1,274.7 524.9,273.5 523.4,273.5 z" fill="#FFFFFF"/>
        </g>
      </g>
      <g>
        <path d="M555.3,611 L555.3,611 C497.4,611 450.4,658 450.4,715.9 L450.4,874 L660.2,874 L660.2,715.9 C660.2,658 613.3,611 555.3,611 z" fill="url(#Gradient_21)"/>
        <path d="M550.7,611.1 C543.5,611.4 536.5,612.5 529.7,614.2 C557.3,625.7 577.7,666.8 577.7,715.9 L577.7,874 L642.4,874 L642.4,715.9 C642.3,659.5 601.7,613.6 550.7,611.1 z" fill="url(#Gradient_22)"/>
        <path d="M655,775.6 L459.4,775.6 C390.7,775.6 335,831.3 335,900 L335,900 L779.4,900 L779.4,900 C779.4,831.3 723.7,775.6 655,775.6 z" fill="url(#Gradient_23)"/>
        <path d="M648.7,775.6 L555.3,775.6 C616.4,775.6 665.9,831.3 665.9,900 L665.9,900 L759.3,900 L759.3,900 C759.3,831.3 709.8,775.6 648.7,775.6 z" fill="url(#Gradient_24)"/>
        <g>
          <path d="M434.8,803 L469.7,803 C471.2,803 472.5,801.8 472.5,800.2 C472.5,798.7 471.3,797.4 469.7,797.4 L434.8,797.4 C433.3,797.4 432,798.6 432,800.2 C432,801.8 433.2,803 434.8,803 z" fill="#E5B9DD"/>
          <path d="M531.9,803 L539.9,803 C541.4,803 542.7,801.8 542.7,800.2 C542.7,798.7 541.5,797.4 539.9,797.4 L531.9,797.4 C530.4,797.4 529.1,798.6 529.1,800.2 C529.1,801.8 530.4,803 531.9,803 z" fill="#E5B9DD"/>
          <path d="M484.1,803 L520.6,803 C522.1,803 523.4,801.8 523.4,800.2 C523.4,798.7 522.2,797.4 520.6,797.4 L484.1,797.4 C482.6,797.4 481.3,798.6 481.3,800.2 C481.4,801.8 482.6,803 484.1,803 z" fill="#E5B9DD"/>
        </g>
        <g>
          <path d="M552.9,758.7 L521.7,758.7 C520.3,758.7 519.2,759.8 519.2,761.2 C519.2,762.6 520.3,763.7 521.7,763.7 L552.9,763.7 C554.3,763.7 555.4,762.6 555.4,761.2 C555.3,759.8 554.2,758.7 552.9,758.7 z" fill="#E5B9DD"/>
          <path d="M466.1,758.7 L458.9,758.7 C457.5,758.7 456.4,759.8 456.4,761.2 C456.4,762.6 457.5,763.7 458.9,763.7 L466.1,763.7 C467.5,763.7 468.6,762.6 468.6,761.2 C468.6,759.8 467.5,758.7 466.1,758.7 z" fill="#E5B9DD"/>
          <path d="M508.8,758.7 L476.2,758.7 C474.8,758.7 473.7,759.8 473.7,761.2 C473.7,762.6 474.8,763.7 476.2,763.7 L508.8,763.7 C510.2,763.7 511.3,762.6 511.3,761.2 C511.3,759.8 510.1,758.7 508.8,758.7 z" fill="#E5B9DD"/>
        </g>
        <g>
          <path d="M657.4,885.7 L622.5,885.7 C621,885.7 619.7,886.9 619.7,888.5 C619.7,890 620.9,891.3 622.5,891.3 L657.4,891.3 C658.9,891.3 660.2,890.1 660.2,888.5 C660.2,886.9 659,885.7 657.4,885.7 z" fill="#E5B9DD"/>
          <path d="M560.3,885.7 L463.3,885.7 C461.8,885.7 460.5,886.9 460.5,888.5 C460.5,890 461.7,891.3 463.3,891.3 L560.3,891.3 C561.8,891.3 563.1,890.1 563.1,888.5 C563.1,886.9 561.9,885.7 560.3,885.7 z" fill="#E5B9DD"/>
          <path d="M608.1,885.7 L571.6,885.7 C570.1,885.7 568.8,886.9 568.8,888.5 C568.8,890 570,891.3 571.6,891.3 L608.1,891.3 C609.6,891.3 610.9,890.1 610.9,888.5 C610.9,886.9 609.6,885.7 608.1,885.7 z" fill="#E5B9DD"/>
        </g>
        <path d="M600.1,860 L636.6,860 C638.1,860 639.4,858.8 639.4,857.2 C639.4,855.7 638.2,854.4 636.6,854.4 L600.1,854.4 C598.6,854.4 597.3,855.6 597.3,857.2 C597.4,858.7 598.6,860 600.1,860 z" fill="#E5B9DD"/>
      </g>
    </g>
    <path d="M0,0 L350,0 L350,900 L0,900 L0,0 z" fill="#714A67" id="Colorize" display="none"/>
  </g>
</svg>
