<?xml version="1.0" encoding="UTF-8"?>
<!DOCTYPE svg PUBLIC "-//W3C//DTD SVG 1.1//EN" "http://www.w3.org/Graphics/SVG/1.1/DTD/svg11.dtd">
<svg version="1.1" xmlns="http://www.w3.org/2000/svg" xmlns:xlink="http://www.w3.org/1999/xlink" x="0" y="0" width="1440" height="640" viewBox="0, 0, 1440, 640">
  <g id="Background">
    <rect x="0" y="0" width="1440" height="640" fill="#000000" fill-opacity="0"/>
  </g>
  <g id="Main">
    <g id="light" display="none">
      <g id="odoo">
        <path d="M1265.02,640 C1169.158,640 1091.447,562.288 1091.447,466.427 C1091.447,370.565 1169.158,292.853 1265.02,292.853 C1360.882,292.853 1438.593,370.565 1438.593,466.427 C1438.593,562.288 1360.882,640 1265.02,640 z M1265.02,568.256 C1321.259,568.256 1366.849,522.666 1366.849,466.427 C1366.849,410.188 1321.259,364.597 1265.02,364.597 C1208.781,364.597 1163.19,410.188 1163.19,466.427 C1163.19,522.666 1208.781,568.256 1265.02,568.256 z M901.673,640 C805.811,640 728.1,562.288 728.1,466.427 C728.1,370.565 805.811,292.853 901.673,292.853 C997.535,292.853 1075.246,370.565 1075.246,466.427 C1075.246,562.288 997.535,640 901.673,640 z M901.673,568.256 C957.912,568.256 1003.503,522.666 1003.503,466.427 C1003.503,410.188 957.912,364.597 901.673,364.597 C845.434,364.597 799.844,410.188 799.844,466.427 C799.844,522.666 845.434,568.256 901.673,568.256 z M711.9,464.112 C711.9,561.082 634.139,640 538.326,640 C442.514,640 364.753,561.313 364.753,464.344 C364.753,367.374 435.34,292.853 538.326,292.853 C576.281,292.853 611.459,300.953 640.156,322.014 L640.156,221.341 C640.156,202.132 657.051,186.395 676.028,186.395 C695.005,186.395 711.9,202.132 711.9,221.341 z M538.326,568.256 C594.565,568.256 640.156,522.666 640.156,466.427 C640.156,410.188 594.565,364.597 538.326,364.597 C482.088,364.597 436.497,410.188 436.497,466.427 C436.497,522.666 482.088,568.256 538.326,568.256 z" fill="#8F8F8F"/>
        <path d="M174.98,640 C79.118,640 1.407,562.289 1.407,466.427 C1.407,370.565 79.118,292.853 174.98,292.853 C270.842,292.853 348.553,370.565 348.553,466.427 C348.553,562.289 270.842,640 174.98,640 z M174.98,568.256 C231.219,568.256 276.81,522.666 276.81,466.427 C276.81,410.188 231.219,364.597 174.98,364.597 C118.741,364.597 73.151,410.188 73.151,466.427 C73.151,522.666 118.741,568.256 174.98,568.256 z" fill="#714B67"/>
      </g>
      <g id="command-line">
        <path d="M1406.862,64.066 Q1400.226,61.05 1392.263,61.05 Q1377.423,61.05 1366.926,71.486 Q1356.429,81.922 1356.429,96.762 Q1356.429,111.603 1366.926,122.099 Q1377.423,132.596 1392.263,132.596 Q1406.982,132.596 1417.479,122.22 Q1417.6,122.099 1417.72,121.979 Q1421.219,118.48 1426.287,118.48 Q1431.354,118.48 1434.974,122.039 Q1438.593,125.598 1438.593,130.666 Q1438.593,135.733 1434.974,139.353 Q1434.853,139.473 1434.732,139.594 Q1417.238,157.088 1392.263,157.088 Q1367.288,157.088 1349.673,139.473 Q1332.058,121.858 1332.058,96.883 Q1332.058,71.908 1349.673,54.293 Q1367.288,36.678 1392.263,36.678 Q1417.238,36.678 1434.732,54.172 L1434.612,54.293 Q1434.612,54.414 1434.732,54.414 Q1438.231,57.913 1438.231,62.98 Q1438.231,67.927 1434.732,71.426 L1400.226,105.691 Q1396.606,109.19 1391.539,109.19 Q1386.351,109.19 1382.731,105.691 Q1379.233,102.071 1379.233,96.883 Q1379.233,91.816 1382.731,88.196 z" fill="#21272B"/>
        <path d="M1266.096,36.437 Q1291.553,37.885 1307.962,54.293 Q1325.336,71.667 1325.577,96.28 L1325.577,142.852 Q1325.577,149.849 1321.957,153.469 Q1318.338,157.088 1313.27,157.088 Q1308.203,157.088 1304.583,153.469 Q1300.964,149.849 1300.964,143.093 L1300.964,96.521 Q1300.964,95.435 1301.085,94.35 Q1300.361,81.078 1290.708,71.546 Q1280.212,61.05 1265.372,61.05 L1264.889,61.05 Q1250.049,61.05 1239.552,71.546 Q1229.9,81.078 1229.176,94.35 Q1229.297,95.435 1229.297,96.521 L1229.297,143.093 Q1229.297,149.849 1225.677,153.469 Q1222.058,157.088 1216.99,157.088 Q1211.923,157.088 1208.303,153.469 Q1204.684,149.849 1204.684,142.852 L1204.684,96.28 Q1204.925,71.667 1222.299,54.293 Q1238.708,37.885 1264.165,36.437 z" fill="#21272B"/>
        <path d="M1186.259,24.613 Q1181.191,24.613 1177.572,20.993 Q1173.952,17.374 1173.952,12.306 Q1173.952,7.239 1177.572,3.62 Q1181.191,0 1186.259,0 Q1191.326,0 1194.945,3.62 Q1198.565,7.239 1198.565,12.306 Q1198.565,17.374 1194.945,20.993 Q1191.326,24.613 1186.259,24.613 z M1186.259,157.089 Q1181.191,157.089 1177.572,153.469 Q1173.952,149.849 1173.952,144.782 L1173.952,48.261 Q1173.952,43.193 1177.572,39.574 Q1181.191,35.954 1186.259,35.954 Q1191.326,35.954 1194.945,39.574 Q1198.565,43.193 1198.565,48.261 L1198.565,144.782 Q1198.565,149.849 1194.945,153.469 Q1191.326,157.089 1186.259,157.089 z" fill="#21272B"/>
        <path d="M1155.527,0.965 Q1160.594,0.965 1164.214,4.585 Q1167.833,8.204 1167.833,13.271 L1167.833,144.782 Q1167.833,149.849 1164.214,153.469 Q1160.594,157.088 1155.527,157.088 Q1150.459,157.088 1146.84,153.469 Q1143.22,149.849 1143.22,144.782 L1143.22,13.271 Q1143.22,8.204 1146.84,4.585 Q1150.459,0.965 1155.527,0.965 z" fill="#21272B"/>
        <path d="M1064.228,73.115 Q1064.228,68.048 1067.847,64.428 Q1071.467,60.808 1076.534,60.808 L1124.795,60.808 Q1129.862,60.808 1133.482,64.428 Q1137.101,68.048 1137.101,73.115 Q1137.101,78.182 1133.482,81.802 Q1129.862,85.421 1124.795,85.421 L1076.534,85.421 Q1071.467,85.421 1067.847,81.802 Q1064.228,78.182 1064.228,73.115 z" fill="#21272B"/>
        <path d="M1032.772,99.417 Q1032.652,98.331 1032.652,97.245 L1032.652,92.66 Q1031.324,80.595 1022.396,71.667 Q1011.899,61.17 997.059,61.17 Q982.219,61.17 971.783,71.667 Q961.346,82.164 961.346,97.004 Q961.346,111.844 971.783,122.28 Q982.219,132.717 997.059,132.717 Q1011.899,132.717 1022.396,122.22 Q1032.048,112.688 1032.772,99.417 z M1057.265,97.486 Q1057.023,122.099 1039.649,139.473 Q1022.034,157.088 997.059,157.088 Q972.084,157.088 954.469,139.473 Q936.854,121.858 936.854,96.883 Q936.854,71.908 954.469,54.293 Q972.084,36.678 997.059,36.678 Q1017.208,36.678 1032.652,48.26 L1032.652,12.789 Q1032.652,7.721 1036.271,4.102 Q1039.891,0.482 1044.958,0.482 Q1050.025,0.482 1053.645,4.102 Q1057.265,7.721 1057.265,12.789 z" fill="#21272B"/>
        <path d="M870.892,36.437 Q896.35,37.885 912.758,54.293 Q930.132,71.667 930.373,96.28 L930.373,142.852 Q930.373,149.849 926.754,153.469 Q923.134,157.088 918.067,157.088 Q913,157.088 909.38,153.469 Q905.76,149.849 905.76,143.093 L905.76,96.521 Q905.76,95.435 905.881,94.35 Q905.157,81.078 895.505,71.546 Q885.008,61.05 870.168,61.05 L869.686,61.05 Q854.845,61.05 844.349,71.546 Q834.697,81.078 833.973,94.35 Q834.093,95.435 834.093,96.521 L834.093,143.093 Q834.093,149.849 830.474,153.469 Q826.854,157.088 821.787,157.088 Q816.719,157.088 813.1,153.469 Q809.48,149.849 809.48,142.852 L809.48,96.28 Q809.722,71.667 827.096,54.293 Q843.504,37.885 868.962,36.437 z" fill="#21272B"/>
        <path d="M767.649,71.546 Q757.152,61.05 742.312,61.05 Q727.472,61.05 717.035,71.486 Q706.599,81.922 706.599,96.762 Q706.599,111.603 717.035,122.099 Q727.472,132.596 742.312,132.596 Q757.152,132.596 767.649,122.099 Q776.577,113.171 777.904,101.106 L777.904,96.521 Q777.904,95.435 778.025,94.349 Q777.301,81.078 767.649,71.546 z M802.517,145.264 Q802.517,152.262 798.898,154.675 Q795.278,157.088 790.211,157.088 Q785.143,157.088 781.524,154.675 Q777.904,152.262 777.904,145.506 Q762.461,157.088 742.312,157.088 Q717.337,157.088 699.722,139.473 Q682.107,121.858 682.107,96.883 Q682.107,71.908 699.722,54.293 Q717.337,36.678 742.312,36.678 Q767.287,36.678 784.902,54.293 Q802.276,71.667 802.517,96.28 z" fill="#21272B"/>
        <path d="M566.677,157.088 Q561.61,157.088 557.991,153.469 Q554.371,149.849 554.371,143.093 L554.371,96.521 Q554.371,95.435 554.492,94.35 Q553.768,81.078 544.116,71.546 Q533.619,61.05 518.779,61.05 L518.296,61.05 Q503.456,61.05 492.959,71.546 Q483.307,81.078 482.583,94.35 Q482.704,95.435 482.704,96.521 L482.704,143.093 Q482.704,149.849 479.084,153.469 Q475.465,157.088 470.397,157.088 Q465.33,157.088 461.71,153.469 Q458.091,149.849 458.091,142.852 L458.091,96.28 Q458.332,71.667 475.706,54.293 Q492.115,37.885 517.572,36.437 L519.503,36.437 Q544.96,37.885 561.369,54.293 Q564.385,57.31 566.798,60.446 Q569.211,57.31 572.227,54.293 Q588.636,37.885 614.094,36.437 L616.024,36.437 Q641.482,37.885 657.89,54.293 Q675.264,71.667 675.505,96.28 L675.505,142.852 Q675.505,149.849 671.886,153.469 Q668.266,157.088 663.199,157.088 Q658.131,157.088 654.512,153.469 Q650.892,149.849 650.892,143.093 L650.892,96.521 Q650.892,95.435 651.013,94.35 Q650.289,81.078 640.637,71.546 Q630.14,61.05 615.3,61.05 L614.818,61.05 Q599.977,61.05 589.481,71.546 Q579.828,81.078 579.105,94.35 Q579.225,95.435 579.225,96.521 L579.225,143.093 Q579.225,149.849 575.606,153.469 Q571.986,157.088 566.919,157.088 z" fill="#21272B"/>
        <path d="M342.662,157.088 Q337.594,157.088 333.975,153.469 Q330.355,149.849 330.355,143.093 L330.355,96.521 Q330.355,95.435 330.476,94.35 Q329.752,81.078 320.1,71.546 Q309.603,61.05 294.763,61.05 L294.28,61.05 Q279.44,61.05 268.943,71.546 Q259.291,81.078 258.567,94.35 Q258.688,95.435 258.688,96.521 L258.688,143.093 Q258.688,149.849 255.068,153.469 Q251.449,157.088 246.382,157.088 Q241.314,157.088 237.695,153.469 Q234.075,149.849 234.075,142.852 L234.075,96.28 Q234.316,71.667 251.69,54.293 Q268.099,37.885 293.556,36.437 L295.487,36.437 Q320.944,37.885 337.353,54.293 Q340.369,57.31 342.782,60.446 Q345.195,57.31 348.212,54.293 Q364.62,37.885 390.078,36.437 L392.008,36.437 Q417.466,37.885 433.874,54.293 Q451.248,71.667 451.49,96.28 L451.49,142.852 Q451.49,149.849 447.87,153.469 Q444.25,157.088 439.183,157.088 Q434.116,157.088 430.496,153.469 Q426.877,149.849 426.877,143.093 L426.877,96.521 Q426.877,95.435 426.997,94.35 Q426.273,81.078 416.621,71.546 Q406.124,61.05 391.284,61.05 L390.802,61.05 Q375.962,61.05 365.465,71.546 Q355.813,81.078 355.089,94.35 Q355.209,95.435 355.209,96.521 L355.209,143.093 Q355.209,149.849 351.59,153.469 Q347.97,157.088 342.903,157.088 z" fill="#21272B"/>
        <path d="M166.907,36.678 Q191.881,36.678 209.497,54.293 Q227.112,71.908 227.112,96.883 Q227.112,121.858 209.497,139.473 Q191.881,157.088 166.907,157.088 Q141.932,157.088 124.316,139.473 Q106.701,121.858 106.701,96.883 Q106.701,71.908 124.316,54.293 Q141.932,36.678 166.907,36.678 z M166.907,61.05 Q152.066,61.05 141.57,71.486 Q131.073,81.922 131.073,96.762 Q131.073,111.603 141.57,122.099 Q152.066,132.596 166.907,132.596 Q181.747,132.596 192.183,122.099 Q202.619,111.603 202.619,96.762 Q202.619,81.922 192.183,71.486 Q181.747,61.05 166.907,61.05 z" fill="#21272B"/>
        <path d="M103.961,54.293 Q103.961,54.414 104.081,54.414 Q107.58,57.913 107.58,62.98 Q107.58,67.927 104.021,71.486 Q100.462,75.045 95.515,75.045 Q90.448,75.045 86.949,71.426 L86.828,71.426 Q76.452,61.05 61.612,61.05 Q46.772,61.05 36.275,71.486 Q25.779,81.922 25.779,96.762 Q25.779,111.603 36.275,122.099 Q46.772,132.596 61.612,132.596 Q76.332,132.596 86.828,122.22 Q86.949,122.099 87.07,121.979 Q90.568,118.48 95.636,118.48 Q100.703,118.48 104.323,122.039 Q107.942,125.598 107.942,130.666 Q107.942,135.733 104.323,139.353 Q104.202,139.473 104.081,139.594 Q86.587,157.088 61.612,157.088 Q36.637,157.088 19.022,139.473 Q1.407,121.858 1.407,96.883 Q1.407,71.908 19.022,54.293 Q36.637,36.678 61.612,36.678 Q86.587,36.678 104.081,54.172 z" fill="#21272B"/>
      </g>
    </g>
    <g id="dark">
      <g id="odoo">
        <path d="M1265.02,640 C1169.158,640 1091.447,562.288 1091.447,466.427 C1091.447,370.565 1169.158,292.853 1265.02,292.853 C1360.882,292.853 1438.593,370.565 1438.593,466.427 C1438.593,562.288 1360.882,640 1265.02,640 z M1265.02,568.256 C1321.259,568.256 1366.849,522.666 1366.849,466.427 C1366.849,410.188 1321.259,364.597 1265.02,364.597 C1208.781,364.597 1163.19,410.188 1163.19,466.427 C1163.19,522.666 1208.781,568.256 1265.02,568.256 z M901.673,640 C805.811,640 728.1,562.288 728.1,466.427 C728.1,370.565 805.811,292.853 901.673,292.853 C997.535,292.853 1075.246,370.565 1075.246,466.427 C1075.246,562.288 997.535,640 901.673,640 z M901.673,568.256 C957.912,568.256 1003.503,522.666 1003.503,466.427 C1003.503,410.188 957.912,364.597 901.673,364.597 C845.434,364.597 799.844,410.188 799.844,466.427 C799.844,522.666 845.434,568.256 901.673,568.256 z M711.9,464.112 C711.9,561.082 634.139,640 538.326,640 C442.514,640 364.753,561.313 364.753,464.344 C364.753,367.374 435.34,292.853 538.326,292.853 C576.281,292.853 611.459,300.953 640.156,322.014 L640.156,221.341 C640.156,202.132 657.051,186.395 676.028,186.395 C695.005,186.395 711.9,202.132 711.9,221.341 z M538.326,568.256 C594.565,568.256 640.156,522.666 640.156,466.427 C640.156,410.188 594.565,364.597 538.326,364.597 C482.088,364.597 436.497,410.188 436.497,466.427 C436.497,522.666 482.088,568.256 538.326,568.256 z" fill="#FFFFFF"/>
        <path d="M174.98,640 C79.118,640 1.407,562.289 1.407,466.427 C1.407,370.565 79.118,292.853 174.98,292.853 C270.842,292.853 348.553,370.565 348.553,466.427 C348.553,562.289 270.842,640 174.98,640 z M174.98,568.256 C231.219,568.256 276.81,522.666 276.81,466.427 C276.81,410.188 231.219,364.597 174.98,364.597 C118.741,364.597 73.151,410.188 73.151,466.427 C73.151,522.666 118.741,568.256 174.98,568.256 z" fill="#FFFFFF"/>
      </g>
      <g id="command-line">
        <path d="M1406.862,64.066 Q1400.226,61.05 1392.263,61.05 Q1377.423,61.05 1366.926,71.486 Q1356.429,81.922 1356.429,96.762 Q1356.429,111.603 1366.926,122.099 Q1377.423,132.596 1392.263,132.596 Q1406.982,132.596 1417.479,122.22 Q1417.6,122.099 1417.72,121.979 Q1421.219,118.48 1426.287,118.48 Q1431.354,118.48 1434.974,122.039 Q1438.593,125.598 1438.593,130.666 Q1438.593,135.733 1434.974,139.353 Q1434.853,139.473 1434.732,139.594 Q1417.238,157.088 1392.263,157.088 Q1367.288,157.088 1349.673,139.473 Q1332.058,121.858 1332.058,96.883 Q1332.058,71.908 1349.673,54.293 Q1367.288,36.678 1392.263,36.678 Q1417.238,36.678 1434.732,54.172 L1434.612,54.293 Q1434.612,54.414 1434.732,54.414 Q1438.231,57.913 1438.231,62.98 Q1438.231,67.927 1434.732,71.426 L1400.226,105.691 Q1396.606,109.19 1391.539,109.19 Q1386.351,109.19 1382.731,105.691 Q1379.233,102.071 1379.233,96.883 Q1379.233,91.816 1382.731,88.196 z" fill="#FFFFFF"/>
        <path d="M1266.096,36.437 Q1291.553,37.885 1307.962,54.293 Q1325.336,71.667 1325.577,96.28 L1325.577,142.852 Q1325.577,149.849 1321.957,153.469 Q1318.338,157.088 1313.27,157.088 Q1308.203,157.088 1304.583,153.469 Q1300.964,149.849 1300.964,143.093 L1300.964,96.521 Q1300.964,95.435 1301.085,94.35 Q1300.361,81.078 1290.708,71.546 Q1280.212,61.05 1265.372,61.05 L1264.889,61.05 Q1250.049,61.05 1239.552,71.546 Q1229.9,81.078 1229.176,94.35 Q1229.297,95.435 1229.297,96.521 L1229.297,143.093 Q1229.297,149.849 1225.677,153.469 Q1222.058,157.088 1216.99,157.088 Q1211.923,157.088 1208.303,153.469 Q1204.684,149.849 1204.684,142.852 L1204.684,96.28 Q1204.925,71.667 1222.299,54.293 Q1238.708,37.885 1264.165,36.437 z" fill="#FFFFFF"/>
        <path d="M1186.259,24.613 Q1181.191,24.613 1177.572,20.993 Q1173.952,17.374 1173.952,12.306 Q1173.952,7.239 1177.572,3.62 Q1181.191,-0 1186.259,-0 Q1191.326,-0 1194.945,3.62 Q1198.565,7.239 1198.565,12.306 Q1198.565,17.374 1194.945,20.993 Q1191.326,24.613 1186.259,24.613 z M1186.259,157.089 Q1181.191,157.089 1177.572,153.469 Q1173.952,149.849 1173.952,144.782 L1173.952,48.261 Q1173.952,43.193 1177.572,39.574 Q1181.191,35.954 1186.259,35.954 Q1191.326,35.954 1194.945,39.574 Q1198.565,43.193 1198.565,48.261 L1198.565,144.782 Q1198.565,149.849 1194.945,153.469 Q1191.326,157.089 1186.259,157.089 z" fill="#FFFFFF"/>
        <path d="M1155.527,0.965 Q1160.594,0.965 1164.214,4.585 Q1167.833,8.204 1167.833,13.271 L1167.833,144.782 Q1167.833,149.849 1164.214,153.469 Q1160.594,157.088 1155.527,157.088 Q1150.459,157.088 1146.84,153.469 Q1143.22,149.849 1143.22,144.782 L1143.22,13.271 Q1143.22,8.204 1146.84,4.585 Q1150.459,0.965 1155.527,0.965 z" fill="#FFFFFF"/>
        <path d="M1064.228,73.115 Q1064.228,68.047 1067.847,64.428 Q1071.467,60.808 1076.534,60.808 L1124.795,60.808 Q1129.862,60.808 1133.482,64.428 Q1137.101,68.047 1137.101,73.115 Q1137.101,78.182 1133.482,81.802 Q1129.862,85.421 1124.795,85.421 L1076.534,85.421 Q1071.467,85.421 1067.847,81.802 Q1064.228,78.182 1064.228,73.115 z" fill="#FFFFFF"/>
        <path d="M1032.772,99.417 Q1032.652,98.331 1032.652,97.245 L1032.652,92.66 Q1031.324,80.595 1022.396,71.667 Q1011.899,61.17 997.059,61.17 Q982.219,61.17 971.783,71.667 Q961.346,82.164 961.346,97.004 Q961.346,111.844 971.783,122.28 Q982.219,132.717 997.059,132.717 Q1011.899,132.717 1022.396,122.22 Q1032.048,112.688 1032.772,99.417 z M1057.265,97.486 Q1057.023,122.099 1039.649,139.473 Q1022.034,157.088 997.059,157.088 Q972.084,157.088 954.469,139.473 Q936.854,121.858 936.854,96.883 Q936.854,71.908 954.469,54.293 Q972.084,36.678 997.059,36.678 Q1017.208,36.678 1032.652,48.26 L1032.652,12.789 Q1032.652,7.721 1036.271,4.102 Q1039.891,0.482 1044.958,0.482 Q1050.025,0.482 1053.645,4.102 Q1057.265,7.721 1057.265,12.789 z" fill="#FFFFFF"/>
        <path d="M870.892,36.437 Q896.35,37.885 912.758,54.293 Q930.132,71.667 930.373,96.28 L930.373,142.852 Q930.373,149.849 926.754,153.469 Q923.134,157.088 918.067,157.088 Q913,157.088 909.38,153.469 Q905.76,149.849 905.76,143.093 L905.76,96.521 Q905.76,95.435 905.881,94.35 Q905.157,81.078 895.505,71.546 Q885.008,61.05 870.168,61.05 L869.686,61.05 Q854.845,61.05 844.349,71.546 Q834.697,81.078 833.973,94.35 Q834.093,95.435 834.093,96.521 L834.093,143.093 Q834.093,149.849 830.474,153.469 Q826.854,157.088 821.787,157.088 Q816.719,157.088 813.1,153.469 Q809.48,149.849 809.48,142.852 L809.48,96.28 Q809.722,71.667 827.096,54.293 Q843.504,37.885 868.962,36.437 z" fill="#FFFFFF"/>
        <path d="M767.649,71.546 Q757.152,61.05 742.312,61.05 Q727.472,61.05 717.035,71.486 Q706.599,81.922 706.599,96.762 Q706.599,111.603 717.035,122.099 Q727.472,132.596 742.312,132.596 Q757.152,132.596 767.649,122.099 Q776.577,113.171 777.904,101.106 L777.904,96.521 Q777.904,95.435 778.025,94.349 Q777.301,81.078 767.649,71.546 z M802.517,145.264 Q802.517,152.262 798.898,154.675 Q795.278,157.088 790.211,157.088 Q785.143,157.088 781.524,154.675 Q777.904,152.262 777.904,145.506 Q762.461,157.088 742.312,157.088 Q717.337,157.088 699.722,139.473 Q682.107,121.858 682.107,96.883 Q682.107,71.908 699.722,54.293 Q717.337,36.678 742.312,36.678 Q767.287,36.678 784.902,54.293 Q802.276,71.667 802.517,96.28 z" fill="#FFFFFF"/>
        <path d="M566.677,157.088 Q561.61,157.088 557.991,153.469 Q554.371,149.849 554.371,143.093 L554.371,96.521 Q554.371,95.435 554.492,94.35 Q553.768,81.078 544.116,71.546 Q533.619,61.05 518.779,61.05 L518.296,61.05 Q503.456,61.05 492.959,71.546 Q483.307,81.078 482.583,94.35 Q482.704,95.435 482.704,96.521 L482.704,143.093 Q482.704,149.849 479.084,153.469 Q475.465,157.088 470.397,157.088 Q465.33,157.088 461.71,153.469 Q458.091,149.849 458.091,142.852 L458.091,96.28 Q458.332,71.667 475.706,54.293 Q492.115,37.885 517.572,36.437 L519.503,36.437 Q544.96,37.885 561.369,54.293 Q564.385,57.309 566.798,60.446 Q569.211,57.309 572.227,54.293 Q588.636,37.885 614.094,36.437 L616.024,36.437 Q641.482,37.885 657.89,54.293 Q675.264,71.667 675.505,96.28 L675.505,142.852 Q675.505,149.849 671.886,153.469 Q668.266,157.088 663.199,157.088 Q658.131,157.088 654.512,153.469 Q650.892,149.849 650.892,143.093 L650.892,96.521 Q650.892,95.435 651.013,94.35 Q650.289,81.078 640.637,71.546 Q630.14,61.05 615.3,61.05 L614.818,61.05 Q599.977,61.05 589.481,71.546 Q579.828,81.078 579.105,94.35 Q579.225,95.435 579.225,96.521 L579.225,143.093 Q579.225,149.849 575.606,153.469 Q571.986,157.088 566.919,157.088 z" fill="#FFFFFF"/>
        <path d="M342.662,157.088 Q337.594,157.088 333.975,153.469 Q330.355,149.849 330.355,143.093 L330.355,96.521 Q330.355,95.435 330.476,94.35 Q329.752,81.078 320.1,71.546 Q309.603,61.05 294.763,61.05 L294.28,61.05 Q279.44,61.05 268.943,71.546 Q259.291,81.078 258.567,94.35 Q258.688,95.435 258.688,96.521 L258.688,143.093 Q258.688,149.849 255.068,153.469 Q251.449,157.088 246.382,157.088 Q241.314,157.088 237.695,153.469 Q234.075,149.849 234.075,142.852 L234.075,96.28 Q234.316,71.667 251.69,54.293 Q268.099,37.885 293.556,36.437 L295.487,36.437 Q320.944,37.885 337.353,54.293 Q340.369,57.309 342.782,60.446 Q345.195,57.309 348.212,54.293 Q364.62,37.885 390.078,36.437 L392.008,36.437 Q417.466,37.885 433.874,54.293 Q451.248,71.667 451.49,96.28 L451.49,142.852 Q451.49,149.849 447.87,153.469 Q444.25,157.088 439.183,157.088 Q434.116,157.088 430.496,153.469 Q426.877,149.849 426.877,143.093 L426.877,96.521 Q426.877,95.435 426.997,94.35 Q426.273,81.078 416.621,71.546 Q406.124,61.05 391.284,61.05 L390.802,61.05 Q375.962,61.05 365.465,71.546 Q355.813,81.078 355.089,94.35 Q355.209,95.435 355.209,96.521 L355.209,143.093 Q355.209,149.849 351.59,153.469 Q347.97,157.088 342.903,157.088 z" fill="#FFFFFF"/>
        <path d="M166.907,36.678 Q191.881,36.678 209.497,54.293 Q227.112,71.908 227.112,96.883 Q227.112,121.858 209.497,139.473 Q191.881,157.088 166.907,157.088 Q141.932,157.088 124.316,139.473 Q106.701,121.858 106.701,96.883 Q106.701,71.908 124.316,54.293 Q141.932,36.678 166.907,36.678 z M166.907,61.05 Q152.066,61.05 141.57,71.486 Q131.073,81.922 131.073,96.762 Q131.073,111.603 141.57,122.099 Q152.066,132.596 166.907,132.596 Q181.747,132.596 192.183,122.099 Q202.619,111.603 202.619,96.762 Q202.619,81.922 192.183,71.486 Q181.747,61.05 166.907,61.05 z" fill="#FFFFFF"/>
        <path d="M103.961,54.293 Q103.961,54.414 104.081,54.414 Q107.58,57.913 107.58,62.98 Q107.58,67.927 104.021,71.486 Q100.462,75.045 95.515,75.045 Q90.448,75.045 86.949,71.426 L86.828,71.426 Q76.452,61.05 61.612,61.05 Q46.772,61.05 36.275,71.486 Q25.779,81.922 25.779,96.762 Q25.779,111.603 36.275,122.099 Q46.772,132.596 61.612,132.596 Q76.332,132.596 86.828,122.22 Q86.949,122.099 87.07,121.979 Q90.568,118.48 95.636,118.48 Q100.703,118.48 104.323,122.039 Q107.942,125.598 107.942,130.666 Q107.942,135.733 104.323,139.353 Q104.202,139.473 104.081,139.594 Q86.587,157.088 61.612,157.088 Q36.637,157.088 19.022,139.473 Q1.407,121.858 1.407,96.883 Q1.407,71.908 19.022,54.293 Q36.637,36.678 61.612,36.678 Q86.587,36.678 104.081,54.172 z" fill="#FFFFFF"/>
      </g>
    </g>
  </g>
</svg>
