<?xml version="1.0" encoding="UTF-8"?>
<!DOCTYPE svg PUBLIC "-//W3C//DTD SVG 1.1//EN" "http://www.w3.org/Graphics/SVG/1.1/DTD/svg11.dtd">
<svg version="1.1" xmlns="http://www.w3.org/2000/svg" xmlns:xlink="http://www.w3.org/1999/xlink" x="0" y="0" width="1400" height="900" viewBox="0, 0, 1400, 900">
  <defs>
    <linearGradient id="Gradient_1" gradientUnits="userSpaceOnUse" x1="555.337" y1="780.071" x2="555.337" y2="410.619">
      <stop offset="0" stop-color="#6E3364"/>
      <stop offset="1" stop-color="#211615"/>
    </linearGradient>
    <linearGradient id="Gradient_2" gradientUnits="userSpaceOnUse" x1="585.992" y1="780.11" x2="585.992" y2="410.811">
      <stop offset="0" stop-color="#E5B9DD"/>
      <stop offset="0.481" stop-color="#6A2060" stop-opacity="0.5"/>
      <stop offset="1" stop-color="#211615" stop-opacity="0"/>
    </linearGradient>
    <linearGradient id="Gradient_3" gradientUnits="userSpaceOnUse" x1="557.206" y1="855.562" x2="557.206" y2="680.772">
      <stop offset="0" stop-color="#6E3364"/>
      <stop offset="1" stop-color="#211615"/>
    </linearGradient>
    <linearGradient id="Gradient_4" gradientUnits="userSpaceOnUse" x1="657.335" y1="897" x2="657.335" y2="761.276">
      <stop offset="0" stop-color="#E5B9DD"/>
      <stop offset="0.481" stop-color="#6A2060" stop-opacity="0.5"/>
      <stop offset="1" stop-color="#211615" stop-opacity="0"/>
    </linearGradient>
  </defs>
  <g id="1-buildings" transform="translate(0, 0)">
    <g id="Buildings">
      <path d="M555.3,611 L555.3,611 C497.4,611 450.4,658 450.4,715.9 L450.4,874 L660.2,874 L660.2,715.9 C660.2,658 613.3,611 555.3,611 z" fill="url(#Gradient_1)"/>
      <path d="M550.7,611.1 C543.5,611.4 536.5,612.5 529.7,614.2 C557.3,625.7 577.7,666.8 577.7,715.9 L577.7,874 L642.4,874 L642.4,715.9 C642.3,659.5 601.7,613.6 550.7,611.1 z" fill="url(#Gradient_2)"/>
      <path d="M655,775.6 L459.4,775.6 C390.7,775.6 335,831.3 335,900 L335,900 L779.4,900 L779.4,900 C779.4,831.3 723.7,775.6 655,775.6 z" fill="url(#Gradient_3)"/>
      <path d="M648.7,775.6 L555.3,775.6 C616.4,775.6 665.9,831.3 665.9,900 L665.9,900 L759.3,900 L759.3,900 C759.3,831.3 709.8,775.6 648.7,775.6 z" fill="url(#Gradient_4)"/>
      <g>
        <path d="M434.8,803 L469.7,803 C471.2,803 472.5,801.8 472.5,800.2 C472.5,798.7 471.3,797.4 469.7,797.4 L434.8,797.4 C433.3,797.4 432,798.6 432,800.2 C432,801.8 433.2,803 434.8,803 z" fill="#E5B9DD"/>
        <path d="M531.9,803 L539.9,803 C541.4,803 542.7,801.8 542.7,800.2 C542.7,798.7 541.5,797.4 539.9,797.4 L531.9,797.4 C530.4,797.4 529.1,798.6 529.1,800.2 C529.1,801.8 530.4,803 531.9,803 z" fill="#E5B9DD"/>
        <path d="M484.1,803 L520.6,803 C522.1,803 523.4,801.8 523.4,800.2 C523.4,798.7 522.2,797.4 520.6,797.4 L484.1,797.4 C482.6,797.4 481.3,798.6 481.3,800.2 C481.4,801.8 482.6,803 484.1,803 z" fill="#E5B9DD"/>
      </g>
      <g>
        <path d="M552.9,758.7 L521.7,758.7 C520.3,758.7 519.2,759.8 519.2,761.2 C519.2,762.6 520.3,763.7 521.7,763.7 L552.9,763.7 C554.3,763.7 555.4,762.6 555.4,761.2 C555.3,759.8 554.2,758.7 552.9,758.7 z" fill="#E5B9DD"/>
        <path d="M466.1,758.7 L458.9,758.7 C457.5,758.7 456.4,759.8 456.4,761.2 C456.4,762.6 457.5,763.7 458.9,763.7 L466.1,763.7 C467.5,763.7 468.6,762.6 468.6,761.2 C468.6,759.8 467.5,758.7 466.1,758.7 z" fill="#E5B9DD"/>
        <path d="M508.8,758.7 L476.2,758.7 C474.8,758.7 473.7,759.8 473.7,761.2 C473.7,762.6 474.8,763.7 476.2,763.7 L508.8,763.7 C510.2,763.7 511.3,762.6 511.3,761.2 C511.3,759.8 510.1,758.7 508.8,758.7 z" fill="#E5B9DD"/>
      </g>
      <g>
        <path d="M657.4,885.7 L622.5,885.7 C621,885.7 619.7,886.9 619.7,888.5 C619.7,890 620.9,891.3 622.5,891.3 L657.4,891.3 C658.9,891.3 660.2,890.1 660.2,888.5 C660.2,886.9 659,885.7 657.4,885.7 z" fill="#E5B9DD"/>
        <path d="M560.3,885.7 L463.3,885.7 C461.8,885.7 460.5,886.9 460.5,888.5 C460.5,890 461.7,891.3 463.3,891.3 L560.3,891.3 C561.8,891.3 563.1,890.1 563.1,888.5 C563.1,886.9 561.9,885.7 560.3,885.7 z" fill="#E5B9DD"/>
        <path d="M608.1,885.7 L571.6,885.7 C570.1,885.7 568.8,886.9 568.8,888.5 C568.8,890 570,891.3 571.6,891.3 L608.1,891.3 C609.6,891.3 610.9,890.1 610.9,888.5 C610.9,886.9 609.6,885.7 608.1,885.7 z" fill="#E5B9DD"/>
      </g>
      <path d="M600.1,860 L636.6,860 C638.1,860 639.4,858.8 639.4,857.2 C639.4,855.7 638.2,854.4 636.6,854.4 L600.1,854.4 C598.6,854.4 597.3,855.6 597.3,857.2 C597.4,858.7 598.6,860 600.1,860 z" fill="#E5B9DD"/>
    </g>
  </g>
</svg>
