<?xml version="1.0" encoding="UTF-8"?>
<!DOCTYPE svg PUBLIC "-//W3C//DTD SVG 1.1//EN" "http://www.w3.org/Graphics/SVG/1.1/DTD/svg11.dtd">
<svg version="1.1" xmlns="http://www.w3.org/2000/svg" xmlns:xlink="http://www.w3.org/1999/xlink" x="0" y="0" width="1400" height="900" viewBox="0, 0, 1400, 900">
  <defs>
    <linearGradient id="Gradient_1" gradientUnits="userSpaceOnUse" x1="1102.302" y1="474.089" x2="1102.302" y2="756.079">
      <stop offset="0" stop-color="#6E3364"/>
      <stop offset="1" stop-color="#211615"/>
    </linearGradient>
    <linearGradient id="Gradient_2" gradientUnits="userSpaceOnUse" x1="1059.5" y1="354.333" x2="1059.5" y2="308.29">
      <stop offset="0" stop-color="#6E3364"/>
      <stop offset="1" stop-color="#211615"/>
    </linearGradient>
    <linearGradient id="Gradient_3" gradientUnits="userSpaceOnUse" x1="1059.5" y1="230.25" x2="1059.5" y2="245.135">
      <stop offset="0" stop-color="#6E3364"/>
      <stop offset="1" stop-color="#211615"/>
    </linearGradient>
    <linearGradient id="Gradient_4" gradientUnits="userSpaceOnUse" x1="1059.5" y1="249" x2="1059.5" y2="265.75">
      <stop offset="0" stop-color="#6E3364"/>
      <stop offset="1" stop-color="#211615"/>
    </linearGradient>
    <linearGradient id="Gradient_5" gradientUnits="userSpaceOnUse" x1="418.052" y1="303.73" x2="418.052" y2="273.223">
      <stop offset="0" stop-color="#6E3364"/>
      <stop offset="1" stop-color="#211615"/>
    </linearGradient>
    <linearGradient id="Gradient_6" gradientUnits="userSpaceOnUse" x1="532.592" y1="255.601" x2="532.592" y2="309.047">
      <stop offset="0" stop-color="#6E3364"/>
      <stop offset="1" stop-color="#211615"/>
    </linearGradient>
    <linearGradient id="Gradient_7" gradientUnits="userSpaceOnUse" x1="564.378" y1="324.122" x2="564.378" y2="305.31">
      <stop offset="0" stop-color="#6E3364"/>
      <stop offset="1" stop-color="#211615"/>
    </linearGradient>
  </defs>
  <g id="2-buildings" transform="translate(0, 0)">
    <g id="Buildings">
      <g>
        <path d="M1096.2,372.1 L1059.5,372.1 L1022.8,372.1 C1098.7,540 973.9,900 973.9,900 L1059.5,900 L1145.1,900 C1145.1,900 1020.3,540 1096.2,372.1 z" fill="#C89AC3"/>
        <path d="M1145.1,900 C1145.1,900 1020.3,540 1096.2,372.1 L1059.5,372.1 L1059.5,900 L1145.1,900 z" fill="url(#Gradient_1)"/>
        <path d="M1059.5,127.7 C1058,127.7 1056.7,129 1056.7,130.5 L1056.7,297.7 C1056.7,299.2 1058,300.5 1059.5,300.5 C1061,300.5 1062.3,299.2 1062.3,297.7 L1062.3,130.5 C1062.3,128.9 1061,127.7 1059.5,127.7 z" fill="#C89AC3"/>
        <path d="M1149,268.1 L970,268.1 C944.7,268.1 924.2,288.6 924.2,313.9 L924.2,313.9 C924.2,339.2 944.7,359.7 970,359.7 L1149,359.7 C1174.3,359.7 1194.8,339.2 1194.8,313.9 L1194.8,313.9 C1194.8,288.6 1174.3,268.1 1149,268.1 z" fill="#C89AC3"/>
        <path d="M1006.8,359.8 C1006.8,366.6 1012.3,372.1 1019.1,372.1 L1099.9,372.1 C1106.7,372.1 1112.2,366.6 1112.2,359.8 L1006.8,359.8 z" fill="#211615"/>
        <path d="M970,359.8 L1149,359.8 C1174.3,359.8 1194.8,339.3 1194.8,314 L924.2,314 C924.2,339.2 944.7,359.8 970,359.8 z" fill="url(#Gradient_2)"/>
        <path d="M1079.6,219.3 L1039.5,219.3 C1033.8,219.3 1029.2,223.9 1029.2,229.6 L1089.9,229.6 C1089.9,223.9 1085.2,219.3 1079.6,219.3 z" fill="#C89AC3"/>
        <g>
          <path d="M1044.5,879.1 L989.6,879.1 C988.5,879.1 987.7,880 987.7,881 C987.7,882.1 988.6,882.9 989.6,882.9 L1044.5,882.9 C1045.6,882.9 1046.4,882 1046.4,881 C1046.4,880 1045.6,879.1 1044.5,879.1 z" fill="#FFFFFF"/>
          <path d="M1052.9,879.1 L1051.4,879.1 C1050.3,879.1 1049.5,880 1049.5,881 C1049.5,882.1 1050.4,882.9 1051.4,882.9 L1052.9,882.9 C1054,882.9 1054.8,882 1054.8,881 C1054.8,880 1054,879.1 1052.9,879.1 z" fill="#FFFFFF"/>
          <path d="M1128.2,879.1 L1104.2,879.1 C1103.1,879.1 1102.3,880 1102.3,881 C1102.3,882.1 1103.2,882.9 1104.2,882.9 L1128.2,882.9 C1129.3,882.9 1130.1,882 1130.1,881 C1130.1,880 1129.3,879.1 1128.2,879.1 z" fill="#E5B9DD"/>
        </g>
        <path d="M1100.1,859.4 L1072.6,859.4 C1071.4,859.4 1070.4,860.4 1070.4,861.6 C1070.4,862.8 1071.4,863.8 1072.6,863.8 L1100.1,863.8 C1101.3,863.8 1102.3,862.8 1102.3,861.6 C1102.3,860.4 1101.3,859.4 1100.1,859.4 z" fill="#E5B9DD"/>
        <g>
          <path d="M1183.6,311.7 L1156.1,311.7 C1154.9,311.7 1153.9,312.7 1153.9,313.9 C1153.9,315.1 1154.9,316.1 1156.1,316.1 L1183.6,316.1 C1184.8,316.1 1185.8,315.1 1185.8,313.9 C1185.8,312.7 1184.8,311.7 1183.6,311.7 z" fill="#FFFFFF"/>
          <path d="M1141.9,311.7 L1055.5,311.7 C1054.3,311.7 1053.3,312.7 1053.3,313.9 C1053.3,315.1 1054.3,316.1 1055.5,316.1 L1141.9,316.1 C1143.1,316.1 1144.1,315.1 1144.1,313.9 C1144.1,312.7 1143.1,311.7 1141.9,311.7 z" fill="#FFFFFF"/>
        </g>
        <g>
          <path d="M957.3,281.6 L963.1,281.6 C964.3,281.6 965.3,280.6 965.3,279.4 C965.3,278.2 964.3,277.2 963.1,277.2 L957.3,277.2 C956.1,277.2 955.1,278.2 955.1,279.4 C955.1,280.6 956.1,281.6 957.3,281.6 z" fill="#FFFFFF"/>
          <path d="M973.6,281.6 L1060,281.6 C1061.2,281.6 1062.2,280.6 1062.2,279.4 C1062.2,278.2 1061.2,277.2 1060,277.2 L973.6,277.2 C972.4,277.2 971.4,278.2 971.4,279.4 C971.4,280.6 972.4,281.6 973.6,281.6 z" fill="#FFFFFF"/>
          <path d="M1075,281.6 L1110,281.6 C1111.2,281.6 1112.2,280.6 1112.2,279.4 C1112.2,278.2 1111.2,277.2 1110,277.2 L1075,277.2 C1073.8,277.2 1072.8,278.2 1072.8,279.4 C1072.8,280.6 1073.8,281.6 1075,281.6 z" fill="#FFFFFF"/>
        </g>
        <path d="M1029.1,229.6 L1089.8,229.6 L1089.8,247.5 L1029.1,247.5 z" fill="url(#Gradient_3)"/>
        <path d="M1104.2,245.2 L1014.7,245.2 C1002,245.2 991.8,255.5 991.8,268.1 L1127.1,268.1 C1127.1,255.4 1116.9,245.2 1104.2,245.2 z" fill="url(#Gradient_4)"/>
        <g>
          <path d="M1108.9,249.7 L1091.2,249.7 C1090.4,249.7 1089.8,250.3 1089.8,251.1 C1089.8,251.9 1090.4,252.5 1091.2,252.5 L1108.9,252.5 C1109.7,252.5 1110.3,251.9 1110.3,251.1 C1110.3,250.3 1109.7,249.7 1108.9,249.7 z" fill="#E5B9DD"/>
          <path d="M1082.1,249.7 L1026.4,249.7 C1025.6,249.7 1025,250.3 1025,251.1 C1025,251.9 1025.6,252.5 1026.4,252.5 L1082.1,252.5 C1082.9,252.5 1083.5,251.9 1083.5,251.1 C1083.5,250.3 1082.9,249.7 1082.1,249.7 z" fill="#E5B9DD"/>
        </g>
      </g>
      <g>
        <path d="M563.3,301.2 L554.4,300.9 L545.6,301.2 L479.6,727.6 L554.4,727.6 L629.2,727.6 z" fill="#E0A4D5"/>
        <g>
          <path d="M433.9,305.4 C422.5,304.1 401.1,295.4 401.1,272.1 L410.1,272.1 C410.1,293.2 434,296.4 435,296.5 L433.9,305.4 z" fill="url(#Gradient_5)"/>
          <path d="M684.1,289.9 C684.1,296.693 671.654,302.2 656.3,302.2 C640.946,302.2 628.5,296.693 628.5,289.9 C628.5,283.107 640.946,277.6 656.3,277.6 C671.654,277.6 684.1,283.107 684.1,289.9 z" fill="#FFFFFF"/>
          <path d="M685.2,320.2 C685.2,330.859 631.116,339.5 564.4,339.5 C497.684,339.5 443.6,330.859 443.6,320.2 C443.6,309.541 497.684,300.9 564.4,300.9 C631.116,300.9 685.2,309.541 685.2,320.2 z" fill="#211615"/>
          <path d="M544.4,225.3 L468.3,225.3 C465.1,225.3 462.4,227.9 462.4,231.2 L462.4,231.2 C462.4,234.4 465,237.1 468.3,237.1 L544.4,237.1 C547.6,237.1 550.3,234.5 550.3,231.2 L550.3,231.2 C550.3,227.9 547.7,225.3 544.4,225.3 z" fill="#E5B9DD"/>
          <path d="M420.2,260.9 L356.1,260.9 C352.2,260.9 349,264.1 349,268 L349,268 C349,271.9 352.2,275.1 356.1,275.1 L420.2,275.1 C424.1,275.1 427.3,271.9 427.3,268 L427.3,268 C427.3,264.1 424.2,260.9 420.2,260.9 z" fill="#E5B9DD"/>
          <path d="M477,220.6 C475.2,220.6 473.7,222.1 473.7,223.9 L473.7,245.4 L480.2,245.4 L480.2,223.9 C480.3,222 478.8,220.6 477,220.6 z" fill="#FFFFFF"/>
          <path d="M505.1,220.6 C503.3,220.6 501.8,222.1 501.8,223.9 L501.8,245.4 L508.3,245.4 L508.3,223.9 C508.4,222 506.9,220.6 505.1,220.6 z" fill="#FFFFFF"/>
          <path d="M533.2,220.6 C531.4,220.6 529.9,222.1 529.9,223.9 L529.9,245.4 L536.4,245.4 L536.4,223.9 C536.4,222 535,220.6 533.2,220.6 z" fill="#FFFFFF"/>
          <path d="M453.3,294 L453.3,257 C453.3,249.3 459.6,243 467.3,243 L545.5,243 C552.6,243 559.5,245.8 564.5,250.9 L611.9,298.3 L453.3,294 z" fill="url(#Gradient_6)"/>
          <path d="M692.8,288.1 L436,288.1 C425,288.1 416.2,297 416.2,307.9 L416.2,307.9 C416.2,318.9 425.1,327.7 436,327.7 L692.8,327.7 C703.8,327.7 712.6,318.8 712.6,307.9 L712.6,307.9 C712.6,296.9 703.7,288.1 692.8,288.1 z" fill="#E5B9DD"/>
          <path d="M436,327.7 L692.8,327.7 C703.8,327.7 712.6,318.8 712.6,307.9 L416.1,307.9 C416.1,318.9 425,327.7 436,327.7 z" fill="url(#Gradient_7)"/>
          <g>
            <path d="M590.3,309.4 L608.7,309.4 C609.5,309.4 610.2,308.7 610.2,307.9 C610.2,307.1 609.5,306.4 608.7,306.4 L590.3,306.4 C589.5,306.4 588.8,307.1 588.8,307.9 C588.9,308.7 589.5,309.4 590.3,309.4 z" fill="#FFFFFF"/>
            <path d="M680.8,309.4 L685.1,309.4 C685.9,309.4 686.6,308.7 686.6,307.9 C686.6,307.1 685.9,306.4 685.1,306.4 L680.8,306.4 C680,306.4 679.3,307.1 679.3,307.9 C679.4,308.7 680,309.4 680.8,309.4 z" fill="#FFFFFF"/>
            <path d="M616.4,309.4 L669,309.4 C669.8,309.4 670.5,308.7 670.5,307.9 C670.5,307.1 669.8,306.4 669,306.4 L616.4,306.4 C615.6,306.4 614.9,307.1 614.9,307.9 C614.9,308.7 615.6,309.4 616.4,309.4 z" fill="#FFFFFF"/>
          </g>
          <path d="M577.1,273.5 L532.8,273.5 C531.3,273.5 530.1,274.7 530.1,276.2 C530.1,277.7 531.3,278.9 532.8,278.9 L577.1,278.9 C578.6,278.9 579.8,277.7 579.8,276.2 C579.8,274.7 578.6,273.5 577.1,273.5 z" fill="#FFFFFF"/>
          <path d="M523.4,273.5 L511.6,273.5 C510.1,273.5 508.9,274.7 508.9,276.2 C508.9,277.7 510.1,278.9 511.6,278.9 L523.4,278.9 C524.9,278.9 526.1,277.7 526.1,276.2 C526.1,274.7 524.9,273.5 523.4,273.5 z" fill="#FFFFFF"/>
        </g>
      </g>
    </g>
  </g>
</svg>
