<?xml version="1.0" encoding="UTF-8"?>
<!DOCTYPE svg PUBLIC "-//W3C//DTD SVG 1.1//EN" "http://www.w3.org/Graphics/SVG/1.1/DTD/svg11.dtd">
<svg version="1.1" xmlns="http://www.w3.org/2000/svg" xmlns:xlink="http://www.w3.org/1999/xlink" x="0" y="0" width="1400" height="900" viewBox="0, 0, 1400, 900">
  <defs>
    <linearGradient id="Gradient_1" gradientUnits="userSpaceOnUse" x1="1246.737" y1="571" x2="1246.737" y2="893.304">
      <stop offset="0" stop-color="#6E3364"/>
      <stop offset="1" stop-color="#211615"/>
    </linearGradient>
    <linearGradient id="Gradient_2" gradientUnits="userSpaceOnUse" x1="1150.702" y1="881" x2="1150.702" y2="608.405">
      <stop offset="0" stop-color="#E5B9DD"/>
      <stop offset="0.481" stop-color="#6A2060" stop-opacity="0.55"/>
      <stop offset="1" stop-color="#211615" stop-opacity="0"/>
    </linearGradient>
    <linearGradient id="Gradient_3" gradientUnits="userSpaceOnUse" x1="845.373" y1="506" x2="845.373" y2="492.635">
      <stop offset="0" stop-color="#6E3364"/>
      <stop offset="1" stop-color="#211615"/>
    </linearGradient>
    <linearGradient id="Gradient_4" gradientUnits="userSpaceOnUse" x1="845.373" y1="458.25" x2="845.373" y2="467.753">
      <stop offset="0" stop-color="#6E3364"/>
      <stop offset="1" stop-color="#211615"/>
    </linearGradient>
    <linearGradient id="Gradient_5" gradientUnits="userSpaceOnUse" x1="845.373" y1="489" x2="845.373" y2="469.333">
      <stop offset="0" stop-color="#6E3364"/>
      <stop offset="1" stop-color="#211615"/>
    </linearGradient>
    <linearGradient id="Gradient_6" gradientUnits="userSpaceOnUse" x1="845.373" y1="620" x2="845.373" y2="943.099">
      <stop offset="0" stop-color="#6E3364"/>
      <stop offset="1" stop-color="#211615"/>
    </linearGradient>
    <linearGradient id="Gradient_7" gradientUnits="userSpaceOnUse" x1="825.25" y1="907" x2="825.25" y2="838.663">
      <stop offset="0" stop-color="#E5B9DD"/>
      <stop offset="0.481" stop-color="#6A2060" stop-opacity="0.55"/>
      <stop offset="1" stop-color="#211615" stop-opacity="0"/>
    </linearGradient>
    <linearGradient id="Gradient_8" gradientUnits="userSpaceOnUse" x1="947.489" y1="604.583" x2="947.49" y2="910.803">
      <stop offset="0" stop-color="#602E57"/>
      <stop offset="1" stop-color="#211615"/>
    </linearGradient>
    <linearGradient id="Gradient_9" gradientUnits="userSpaceOnUse" x1="982.877" y1="884" x2="982.877" y2="592.444">
      <stop offset="0" stop-color="#E5B9DD"/>
      <stop offset="0.481" stop-color="#6A2060" stop-opacity="0.55"/>
      <stop offset="1" stop-color="#211615" stop-opacity="0"/>
    </linearGradient>
  </defs>
  <g id="3-buildings" transform="translate(0, 0)">
    <g id="Buildings">
      <g>
        <path d="M1354.4,900 L1354.4,618.6 C1354.4,566 1311.8,523.4 1259.2,523.4 L1259.2,523.4 L1259.2,523.4 C1259.2,490.9 1244.6,460.1 1219.3,439.6 L1144.3,378.5 L1139.1,378.5 L1139.1,900 L1354.4,900 z" fill="#C89AC3"/>
        <path d="M1139.1,523.4 C1139.1,523.4 1354.4,540 1354.4,900 L1139.1,900 L1139.1,523.4 z" fill="url(#Gradient_1)"/>
        <g>
          <g>
            <path d="M1302.8,880.8 L1275.3,880.8 C1274.1,880.8 1273.1,881.8 1273.1,883 C1273.1,884.2 1274.1,885.2 1275.3,885.2 L1302.8,885.2 C1304,885.2 1305,884.2 1305,883 C1305,881.8 1304,880.8 1302.8,880.8 z" fill="#E5B9DD"/>
            <path d="M1261.1,880.8 L1174.7,880.8 C1173.5,880.8 1172.5,881.8 1172.5,883 C1172.5,884.2 1173.5,885.2 1174.7,885.2 L1261.1,885.2 C1262.3,885.2 1263.3,884.2 1263.3,883 C1263.3,881.8 1262.3,880.8 1261.1,880.8 z" fill="#E5B9DD"/>
          </g>
          <g>
            <path d="M1174.7,673.4 L1202.2,673.4 C1203.4,673.4 1204.4,672.4 1204.4,671.2 C1204.4,670 1203.4,669 1202.2,669 L1174.7,669 C1173.5,669 1172.5,670 1172.5,671.2 C1172.5,672.4 1173.5,673.4 1174.7,673.4 z" fill="#E5B9DD"/>
            <path d="M1216.4,673.4 L1302.8,673.4 C1304,673.4 1305,672.4 1305,671.2 C1305,670 1304,669 1302.8,669 L1216.4,669 C1215.2,669 1214.2,670 1214.2,671.2 C1214.2,672.4 1215.2,673.4 1216.4,673.4 z" fill="#E5B9DD"/>
          </g>
          <g>
            <path d="M1302.8,802.6 L1275.3,802.6 C1274.1,802.6 1273.1,803.6 1273.1,804.8 C1273.1,806 1274.1,807 1275.3,807 L1302.8,807 C1304,807 1305,806 1305,804.8 C1305,803.6 1304,802.6 1302.8,802.6 z" fill="#E5B9DD"/>
            <path d="M1264.2,802.6 L1254.2,802.6 C1253,802.6 1252,803.6 1252,804.8 C1252,806 1253,807 1254.2,807 L1264.2,807 C1265.4,807 1266.4,806 1266.4,804.8 C1266.4,803.6 1265.4,802.6 1264.2,802.6 z" fill="#E5B9DD"/>
            <path d="M1242.8,802.6 L1174.7,802.6 C1173.5,802.6 1172.5,803.6 1172.5,804.8 C1172.5,806 1173.5,807 1174.7,807 L1242.8,807 C1244,807 1245,806 1245,804.8 C1245,803.6 1244,802.6 1242.8,802.6 z" fill="#E5B9DD"/>
          </g>
          <g>
            <path d="M1174.7,779.9 L1202.2,779.9 C1203.4,779.9 1204.4,778.9 1204.4,777.7 C1204.4,776.5 1203.4,775.5 1202.2,775.5 L1174.7,775.5 C1173.5,775.5 1172.5,776.5 1172.5,777.7 C1172.5,779 1173.5,779.9 1174.7,779.9 z" fill="#E5B9DD"/>
            <path d="M1213.3,779.9 L1223.3,779.9 C1224.5,779.9 1225.5,778.9 1225.5,777.7 C1225.5,776.5 1224.5,775.5 1223.3,775.5 L1213.3,775.5 C1212.1,775.5 1211.1,776.5 1211.1,777.7 C1211.1,779 1212.1,779.9 1213.3,779.9 z" fill="#E5B9DD"/>
            <path d="M1234.7,779.9 L1302.8,779.9 C1304,779.9 1305,778.9 1305,777.7 C1305,776.5 1304,775.5 1302.8,775.5 L1234.7,775.5 C1233.5,775.5 1232.5,776.5 1232.5,777.7 C1232.5,779 1233.4,779.9 1234.7,779.9 z" fill="#E5B9DD"/>
          </g>
        </g>
        <g>
          <g>
            <path d="M1145.3,465.1 L1152.7,465.1 C1153.6,465.1 1154.3,464.4 1154.3,463.5 C1154.3,462.6 1153.6,461.9 1152.7,461.9 L1145.3,461.9 C1144.4,461.9 1143.7,462.6 1143.7,463.5 C1143.7,464.4 1144.4,465.1 1145.3,465.1 z" fill="#FFFFFF"/>
            <path d="M1203.9,465.1 L1222.3,465.1 C1223.2,465.1 1223.9,464.4 1223.9,463.5 C1223.9,462.6 1223.2,461.9 1222.3,461.9 L1203.9,461.9 C1203,461.9 1202.3,462.6 1202.3,463.5 C1202.3,464.4 1203.1,465.1 1203.9,465.1 z" fill="#FFFFFF"/>
            <path d="M1159.6,465.1 L1195.9,465.1 C1196.8,465.1 1197.5,464.4 1197.5,463.5 C1197.5,462.6 1196.8,461.9 1195.9,461.9 L1159.6,461.9 C1158.7,461.9 1158,462.6 1158,463.5 C1158,464.4 1158.7,465.1 1159.6,465.1 z" fill="#FFFFFF"/>
          </g>
          <path d="M1145.3,451.6 L1181.6,451.6 C1182.5,451.6 1183.2,450.9 1183.2,450 C1183.2,449.1 1182.5,448.4 1181.6,448.4 L1145.3,448.4 C1144.4,448.4 1143.7,449.1 1143.7,450 C1143.7,450.9 1144.4,451.6 1145.3,451.6 z" fill="#FFFFFF"/>
        </g>
        <g>
          <g>
            <path d="M1170.7,505 L1178.1,505 C1179,505 1179.7,505.7 1179.7,506.6 C1179.7,507.5 1179,508.2 1178.1,508.2 L1170.7,508.2 C1169.8,508.2 1169.1,507.5 1169.1,506.6 C1169.1,505.7 1169.8,505 1170.7,505 z" fill="#FFFFFF"/>
            <path d="M1229.3,505 L1247.7,505 C1248.6,505 1249.3,505.7 1249.3,506.6 C1249.3,507.5 1248.6,508.2 1247.7,508.2 L1229.3,508.2 C1228.4,508.2 1227.7,507.5 1227.7,506.6 C1227.7,505.7 1228.4,505 1229.3,505 z" fill="#FFFFFF"/>
            <path d="M1184.9,505 L1221.2,505 C1222.1,505 1222.8,505.7 1222.8,506.6 C1222.8,507.5 1222.1,508.2 1221.2,508.2 L1184.9,508.2 C1184,508.2 1183.3,507.5 1183.3,506.6 C1183.3,505.7 1184,505 1184.9,505 z" fill="#FFFFFF"/>
          </g>
          <path d="M1209.5,518.5 L1245.8,518.5 C1246.7,518.5 1247.4,519.2 1247.4,520.1 C1247.4,521 1246.7,521.7 1245.8,521.7 L1209.5,521.7 C1208.6,521.7 1207.9,521 1207.9,520.1 C1207.9,519.2 1208.6,518.5 1209.5,518.5 z" fill="#FFFFFF"/>
        </g>
        <path d="M1141.7,234.5 C1140.3,234.5 1139.1,235.7 1139.1,237.1 L1139.1,378.5 L1144.3,378.5 L1144.3,237.1 C1144.3,235.7 1143.1,234.5 1141.7,234.5 z" fill="#C89AC3"/>
        <path d="M1139.1,551 L1162.4,551 L1162.4,900 L1139.1,900 z" fill="url(#Gradient_2)"/>
      </g>
      <g>
        <path d="M845.4,330.7 C844.3,330.7 843.4,331.6 843.4,332.7 L843.4,448.7 L847.3,448.7 L847.3,332.7 C847.3,331.5 846.5,330.7 845.4,330.7 z" fill="#E5B9DD"/>
        <path d="M779.4,494 C779.4,500.4 784.6,505.7 791.1,505.7 L899.7,505.7 C906.1,505.7 911.4,500.5 911.4,494 L779.4,494 z" fill="url(#Gradient_3)"/>
        <path d="M804.9,505.7 C804.9,515.5 812.8,523.4 822.6,523.4 L868.1,523.4 C877.9,523.4 885.8,515.5 885.8,505.7 L804.9,505.7 z" fill="#211615"/>
        <path d="M911.3,466 C911.3,459.6 906.1,454.3 899.6,454.3 L791.1,454.3 C784.7,454.3 779.4,459.5 779.4,466 L911.3,466 z" fill="url(#Gradient_4)"/>
        <path d="M885.8,454.3 C885.8,444.5 877.9,436.6 868.1,436.6 L822.6,436.6 C812.8,436.6 804.9,444.5 804.9,454.3 L885.8,454.3 z" fill="#E5B9DD"/>
        <path d="M931,466 L759.7,466 C752,466 745.7,472.3 745.7,480 C745.7,487.7 752,494 759.7,494 L931,494 C938.7,494 945,487.7 945,480 C945,472.3 938.7,466 931,466 z" fill="#E5B9DD"/>
        <path d="M759.7,494 L931,494 C938.7,494 945,487.7 945,480 L745.7,480 C745.7,487.7 752,494 759.7,494 z" fill="url(#Gradient_5)"/>
        <g>
          <path d="M758.3,481.5 L776.7,481.5 C777.5,481.5 778.2,480.8 778.2,480 C778.2,479.2 777.5,478.5 776.7,478.5 L758.3,478.5 C757.5,478.5 756.8,479.2 756.8,480 C756.8,480.8 757.5,481.5 758.3,481.5 z" fill="#FFFFFF"/>
          <path d="M848.8,481.5 L853.1,481.5 C853.9,481.5 854.6,480.8 854.6,480 C854.6,479.2 853.9,478.5 853.1,478.5 L848.8,478.5 C848,478.5 847.3,479.2 847.3,480 C847.3,480.8 848,481.5 848.8,481.5 z" fill="#FFFFFF"/>
          <path d="M784.4,481.5 L837,481.5 C837.8,481.5 838.5,480.8 838.5,480 C838.5,479.2 837.8,478.5 837,478.5 L784.4,478.5 C783.6,478.5 782.9,479.2 782.9,480 C782.9,480.8 783.5,481.5 784.4,481.5 z" fill="#FFFFFF"/>
        </g>
        <path d="M873.3,816 L873.3,816 C864.9,816 858.2,809.2 858.2,800.9 L858.2,523.4 L832.7,523.4 L832.7,800.9 C832.7,809.3 825.9,816 817.6,816 L817.6,816 C810.3,816 804.3,821.9 804.3,829.3 L804.3,900 L832.7,900 L858.2,900 L886.6,900 L886.6,829.2 C886.5,821.9 880.6,816 873.3,816 z" fill="url(#Gradient_6)"/>
        <path d="M814,827.5 L836.5,827.5 L836.5,900 L814,900 z" fill="url(#Gradient_7)"/>
        <g>
          <path d="M826.7,830.4 L845.1,830.4 C845.9,830.4 846.6,829.7 846.6,828.9 C846.6,828.1 845.9,827.4 845.1,827.4 L826.7,827.4 C825.9,827.4 825.2,828.1 825.2,828.9 C825.2,829.7 825.9,830.4 826.7,830.4 z" fill="#FFFFFF"/>
          <path d="M878,830.4 L882.3,830.4 C883.1,830.4 883.8,829.7 883.8,828.9 C883.8,828.1 883.1,827.4 882.3,827.4 L878,827.4 C877.2,827.4 876.5,828.1 876.5,828.9 C876.5,829.7 877.2,830.4 878,830.4 z" fill="#FFFFFF"/>
          <path d="M852.8,830.4 L872.1,830.4 C872.9,830.4 873.6,829.7 873.6,828.9 C873.6,828.1 872.9,827.4 872.1,827.4 L852.8,827.4 C852,827.4 851.3,828.1 851.3,828.9 C851.3,829.8 852,830.4 852.8,830.4 z" fill="#FFFFFF"/>
        </g>
      </g>
      <g>
        <path d="M991.9,445.5 C934.4,519.1 903.2,609.8 903.2,703.1 L903.2,900 L991.9,900 L991.9,445.5 L991.9,445.5 z" fill="url(#Gradient_8)"/>
        <path d="M964,691.4 L910.6,691.4 C909.4,691.4 908.4,692.4 908.4,693.6 C908.4,694.8 909.4,695.8 910.6,695.8 L964,695.8 C965.2,695.8 966.2,694.8 966.2,693.6 C966.2,692.4 965.2,691.4 964,691.4 z" fill="#E5B9DD"/>
        <path d="M964,709.5 L944.2,709.5 C943,709.5 942,710.5 942,711.7 C942,712.9 943,713.9 944.2,713.9 L964,713.9 C965.2,713.9 966.2,712.9 966.2,711.7 C966.2,710.5 965.2,709.5 964,709.5 z" fill="#E5B9DD"/>
        <path d="M973.9,555 L991.9,555 L991.9,900 L973.9,900 z" fill="url(#Gradient_9)"/>
      </g>
    </g>
  </g>
</svg>
