<svg class="mdx-parallax__image" version="1.1" xmlns="http://www.w3.org/2000/svg" xmlns:xlink="http://www.w3.org/1999/xlink" viewBox="0, 0, 1400, 900">
  <defs>
    <linearGradient id="5_Buildings_Gradient_1" gradientUnits="userSpaceOnUse" x1="700" y1="179" x2="700" y2="819.012">
      <stop offset="0" stop-color="#211615"/>
      <stop offset="0.492" stop-color="#791B6B"/>
      <stop offset="1" stop-color="#E4B8DD"/>
    </linearGradient>
    <g id="Buildings">
      <path d="M474.9,852.5 L474.9,630.4 C474.9,611 466.1,592.6 450.9,580.6 L450.9,580.6 C436.3,569 427.8,551.4 427.8,532.8 L427.8,480 L422.5,480 L422.5,900 L474.9,900 L474.9,852.5 z"/>
      <path d="M363.9,590.9 L363.9,590.9 C356.2,584.8 351.8,575.5 351.8,565.8 L351.8,538 L349,538 L346.2,538 L346.2,565.7 C346.2,575.5 341.7,584.7 334.1,590.8 L334.1,590.8 C326.1,597.2 321.5,606.8 321.5,617 L321.5,872.7 L321.5,900 L349,900 L376.5,900 L376.5,872.8 L376.5,617.1 C376.5,606.9 371.9,597.2 363.9,590.9 z"/>
      <path d="M204.8,606.2 L204.8,606.2 C192.6,596.5 185.4,581.7 185.4,566 L185.4,521.7 L181,521.7 L176.6,521.7 L176.6,566 C176.6,581.6 169.5,596.4 157.2,606.2 L157.2,606.2 C144.4,616.4 137,631.8 137,648.1 L137,856.6 L137,900 L181,900 L225,900 L225,856.5 L225,648.1 C225,631.8 217.6,616.3 204.8,606.2 z"/>
      <path d="M796,603.8 L792.8,603.8 C790.4,599.5 785.9,596.6 780.6,596.6 L769.2,596.6 L769.2,506.7 C769.2,505.7 768.4,505 767.5,505 L767.5,505 C766.5,505 765.8,505.8 765.8,506.7 L765.8,596.6 L754.4,596.6 C749.2,596.6 744.6,599.5 742.2,603.8 L739.4,603.8 C732,603.8 725.7,609.5 725.5,616.9 C725.2,624.6 731.4,631 739.1,631 L745.1,631 C752,631 757.5,636.6 757.5,643.4 L757.5,900 L777.5,900 L777.5,643.5 C777.5,636.6 783.1,631.1 789.9,631.1 L795.6,631.1 C803,631.1 809.3,625.4 809.5,618 C809.8,610.2 803.6,603.8 796,603.8 z"/>
    </g>
  </defs>
  <g id="5-buildings" transform="translate(0, 0)">
    <use xlink:href="#Buildings" fill="url(#5_Buildings_Gradient_1)" />
    <use xlink:href="#Buildings" fill="#71276A" opacity="0.66" />
  </g>
</svg>
